<?xml version="1.0" encoding="UTF-8"?><svg version="1.1" xmlns="http://www.w3.org/2000/svg" xmlns:xlink="http://www.w3.org/1999/xlink" viewBox="0 0 1600 1200" width="1600" height="1200" x="0px" y="0px">
    
    
    <!-- ITEM 0 -->
    <g>
        <defs>
            <clipPath id="clip-path-id-viewbox-item-0">
                <rect x="0.0" y="0.0" width="801.0" height="493.427"/>
            </clipPath>
        </defs>
        <g transform="translate(-10.0 94.0) rotate(0.0 808.0 498.5) scale(2.017478152309613 2.0205623121555973)">
            <g clip-path="url(#clip-path-id-viewbox-item-0)" transform="translate(-0.0 -0.0)">
                
<g>
	<path fill="#FFFFFF" d="M800.5,107.92v384.43c-3.3-2.79-7.03-5.52-11.17-8.19c-22.57-14.61-57.34-27.64-101.08-38.27   c-27.98-6.8-59.63-12.62-94.12-17.24c-57.89-7.76-123.76-12.15-193.63-12.15c-70.7,0-137.29,4.49-195.67,12.42   c-34.51,4.69-66.15,10.58-94.07,17.46c-43.97,10.82-78.7,24.09-100.87,38.95c-3.44,2.3-6.57,4.64-9.39,7.01V106.68   C107.94,40.47,247.27,0.5,399.5,0.5C552.68,0.5,692.79,40.97,800.5,107.92z"/>
	<path fill="#1D2445" d="M801,493.427l-0.823-0.696c-3.245-2.744-6.985-5.486-11.117-8.152   c-22.13-14.325-57.029-27.536-100.928-38.204c-28.16-6.844-59.81-12.641-94.068-17.23C534.789,421.2,467.855,417,400.5,417   c-68.169,0-135.807,4.293-195.603,12.416c-34.327,4.665-65.959,10.536-94.018,17.45c-44.145,10.863-78.97,24.307-100.711,38.88   c-3.392,2.268-6.536,4.615-9.347,6.978L0,493.413V106.401l0.238-0.146c54.541-33.611,116.056-59.846,182.835-77.976   C252.189,9.514,325.006,0,399.5,0c74.956,0,148.195,9.63,217.684,28.621c67.134,18.348,128.899,44.885,183.58,78.874l0.236,0.147   L801,493.427L801,493.427z M400.5,416c67.399,0,134.379,4.203,193.696,12.154c34.293,4.594,65.978,10.397,94.172,17.25   c44.006,10.695,79.012,23.951,101.233,38.336c3.823,2.466,7.316,4.999,10.398,7.541V108.198C688.671,39.072,546.445,1,399.5,1   C253.508,1,111.995,38.631,1,106.959v384.315c2.625-2.155,5.518-4.291,8.612-6.36c21.836-14.636,56.771-28.129,101.028-39.02   c28.092-6.923,59.76-12.8,94.122-17.47C264.602,420.296,332.287,416,400.5,416z"/>
</g>
<g>
	<path fill="#FFFFFF" d="M792.94,445.5c0,13.11-1.23,26.02-3.61,38.66c-22.57-14.61-57.34-27.64-101.08-38.27   c-27.98-6.8-59.63-12.62-94.12-17.24c-57.89-7.76-123.76-12.15-193.63-12.15c-70.7,0-137.29,4.49-195.67,12.42   c-34.51,4.69-66.15,10.58-94.07,17.46c-43.97,10.82-78.7,24.09-100.87,38.95c-2.53-13.02-3.83-26.31-3.83-39.83   c0-157.11,176.15-284.48,393.44-284.48S792.94,288.39,792.94,445.5z"/>
	<path fill="#1D2445" d="M9.543,486.165l-0.144-0.739C6.852,472.316,5.56,458.884,5.56,445.5c0-38.494,10.426-75.834,30.987-110.983   c19.852-33.936,48.267-64.411,84.457-90.578c74.396-53.793,173.301-83.419,278.497-83.419s204.101,29.625,278.497,83.419   c36.189,26.167,64.604,56.642,84.456,90.578c20.562,35.149,30.987,72.49,30.987,110.983c0,12.96-1.218,25.999-3.619,38.752   l-0.138,0.732l-0.625-0.405c-22.129-14.324-57.028-27.535-100.927-38.204c-28.161-6.844-59.81-12.641-94.068-17.23   C534.79,421.2,467.856,417,400.5,417c-68.169,0-135.808,4.293-195.603,12.416c-34.327,4.665-65.959,10.536-94.018,17.45   c-44.145,10.863-78.971,24.308-100.711,38.88L9.543,486.165z M399.5,161.52c-104.986,0-203.684,29.558-277.911,83.229   C47.412,298.384,6.56,369.679,6.56,445.5c0,13.068,1.238,26.185,3.679,38.997c21.876-14.476,56.566-27.816,100.402-38.603   c28.093-6.922,59.76-12.8,94.122-17.47C264.602,420.296,332.286,416,400.5,416c67.4,0,134.379,4.203,193.696,12.154   c34.293,4.594,65.977,10.397,94.172,17.25c43.595,10.595,78.356,23.703,100.606,37.933c2.3-12.46,3.466-25.186,3.466-37.837   c0-75.821-40.852-147.116-115.029-200.751C603.184,191.078,504.486,161.52,399.5,161.52z"/>
</g>
<g>
	<path fill="#FFFFFF" d="M688.25,445.5v0.39c-27.98-6.8-59.63-12.62-94.12-17.24c-57.89-7.76-123.76-12.15-193.63-12.15   c-70.7,0-137.29,4.49-195.67,12.42c-34.51,4.69-66.15,10.58-94.07,17.46c-0.01-0.29-0.01-0.59-0.01-0.88   c0-115.3,129.27-208.78,288.75-208.78C558.97,236.72,688.25,330.2,688.25,445.5z"/>
	<path fill="#1D2445" d="M110.282,447.013l-0.021-0.615c-0.011-0.296-0.011-0.602-0.011-0.898   c0-55.93,30.108-108.503,84.777-148.033C249.65,257.971,322.266,236.22,399.5,236.22c77.23,0,149.846,21.751,204.469,61.247   c54.672,39.531,84.781,92.103,84.781,148.033v1.026l-0.618-0.15c-28.16-6.844-59.81-12.641-94.068-17.23   C534.789,421.2,467.855,417,400.5,417c-68.169,0-135.807,4.293-195.603,12.415c-34.328,4.665-65.96,10.536-94.018,17.45   L110.282,447.013z M399.5,237.22c-77.025,0-149.434,21.684-203.887,61.058C141.211,337.615,111.25,389.9,111.25,445.5   c0,0.081,0,0.163,0,0.244c27.941-6.857,59.397-12.684,93.513-17.32C264.602,420.296,332.287,416,400.5,416   c67.399,0,134.379,4.203,193.696,12.154c34.042,4.56,65.515,10.313,93.554,17.1c-0.088-55.509-30.042-107.696-84.367-146.977   C548.929,258.904,476.521,237.22,399.5,237.22z"/>
</g>
<g>
	<path fill="#FFFFFF" d="M594.13,428.65c-57.89-7.76-123.76-12.15-193.63-12.15c-70.7,0-137.29,4.49-195.67,12.42   c11.35-70.46,94.18-125.14,194.67-125.14C499.85,303.78,582.6,358.32,594.13,428.65z"/>
	<path fill="#1D2445" d="M204.229,429.506l0.107-0.666c11.531-71.581,95.433-125.56,195.164-125.56   c99.529,0,183.414,53.863,195.123,125.289l0.109,0.666l-0.669-0.09C534.789,421.2,467.855,417,400.5,417   c-68.169,0-135.807,4.293-195.603,12.415L204.229,429.506z M399.5,304.28c-98.936,0-182.203,53.282-194.067,124.054   C265.108,420.264,332.541,416,400.5,416c67.145,0,133.874,4.171,193.025,12.065C581.485,357.445,498.237,304.28,399.5,304.28z"/>
</g>

            </g>
        </g>
    </g>
    
    <!-- ITEM 1 -->
    <g>
        <defs>
            <clipPath id="clip-path-id-viewbox-item-1">
                <rect x="0.0" y="0.0" width="515.448" height="300.0"/>
            </clipPath>
        </defs>
        <g transform="translate(188.0 358.0) rotate(0.0 539.5 314.5) scale(2.0933246418649407 2.0966666666666667)">
            <g clip-path="url(#clip-path-id-viewbox-item-1)" transform="translate(-0.0 -0.0)">
                
<g>
	<g>
		<path fill="#FFFFFF" d="M72.586,28.5l0.588,4.051c0.028,0.186,0.112,0.356,0.247,0.491c0.135,0.132,0.306,0.222,0.491,0.247    l4.049,0.586l-4.051,0.588c-0.186,0.028-0.356,0.112-0.491,0.247c-0.132,0.132-0.222,0.306-0.247,0.491l-0.586,4.049l-0.588-4.051    c-0.028-0.186-0.112-0.356-0.247-0.491c-0.135-0.132-0.306-0.222-0.491-0.247l-4.049-0.586l4.051-0.588    c0.186-0.028,0.356-0.112,0.491-0.247c0.132-0.132,0.222-0.306,0.247-0.491L72.586,28.5z"/>
		<path fill="#1D2445" d="M72.587,42.737l-1.084-7.466c-0.012-0.081-0.048-0.152-0.106-0.21c-0.039-0.039-0.111-0.092-0.205-0.105    l-7.467-1.08l7.465-1.084c0.081-0.012,0.152-0.048,0.21-0.106c0.057-0.057,0.094-0.131,0.105-0.207l1.08-7.466l1.084,7.466    c0.012,0.081,0.048,0.152,0.105,0.209c0.059,0.058,0.131,0.095,0.206,0.105l7.467,1.08l-7.465,1.084    c-0.081,0.012-0.152,0.048-0.21,0.106c-0.057,0.057-0.094,0.131-0.105,0.207L72.587,42.737z M70.697,33.874l0.635,0.092    c0.285,0.039,0.553,0.172,0.77,0.385c0.213,0.214,0.347,0.48,0.392,0.775l0.093,0.639l0.092-0.634    c0.04-0.287,0.178-0.563,0.388-0.773c0.21-0.21,0.477-0.344,0.771-0.388l0.64-0.093l-0.635-0.092    c-0.286-0.039-0.553-0.172-0.77-0.385c-0.212-0.212-0.347-0.479-0.391-0.774l-0.093-0.639l-0.092,0.634    c-0.04,0.287-0.178,0.563-0.388,0.773c-0.21,0.21-0.477,0.344-0.771,0.388L70.697,33.874z"/>
	</g>
	<g>
		<path fill="#FFFFFF" d="M77.962,146.125l0.588,4.051c0.028,0.186,0.112,0.356,0.247,0.491c0.135,0.132,0.306,0.222,0.491,0.247    l4.049,0.586l-4.051,0.588c-0.186,0.028-0.356,0.112-0.491,0.247c-0.132,0.132-0.222,0.306-0.247,0.491l-0.586,4.049l-0.588-4.051    c-0.028-0.186-0.112-0.356-0.247-0.491c-0.135-0.132-0.306-0.222-0.491-0.247l-4.049-0.586l4.051-0.588    c0.186-0.028,0.356-0.112,0.491-0.247c0.132-0.132,0.222-0.306,0.247-0.491L77.962,146.125z"/>
		<path fill="#1D2445" d="M77.963,160.362l-1.084-7.466c-0.012-0.081-0.048-0.152-0.105-0.209c-0.058-0.057-0.132-0.095-0.206-0.105    l-7.467-1.08l7.466-1.084c0.08-0.012,0.151-0.048,0.209-0.106c0.058-0.058,0.095-0.131,0.105-0.206l1.081-7.467l1.083,7.466    c0.012,0.08,0.048,0.152,0.106,0.21c0.039,0.039,0.111,0.092,0.205,0.105l7.467,1.08l-7.465,1.084    c-0.081,0.012-0.152,0.048-0.21,0.105c-0.058,0.058-0.095,0.131-0.105,0.206L77.963,160.362z M76.073,151.499l0.634,0.092    c0.286,0.039,0.553,0.172,0.77,0.385c0.213,0.212,0.347,0.479,0.392,0.774l0.093,0.639l0.092-0.634    c0.039-0.286,0.177-0.562,0.388-0.773c0.209-0.209,0.476-0.344,0.771-0.388l0.64-0.093l-0.635-0.092    c-0.285-0.039-0.553-0.172-0.77-0.385c-0.213-0.213-0.347-0.479-0.392-0.773l-0.093-0.64l-0.092,0.634    c-0.039,0.287-0.177,0.563-0.389,0.774c-0.208,0.209-0.475,0.343-0.77,0.387L76.073,151.499z"/>
	</g>
	<g>
		<path fill="#FFFFFF" d="M501.586,87.5l1.135,7.82c0.054,0.359,0.216,0.688,0.477,0.949c0.26,0.256,0.59,0.428,0.949,0.477    l7.815,1.13l-7.82,1.135c-0.359,0.054-0.688,0.216-0.949,0.477c-0.256,0.256-0.428,0.59-0.477,0.949l-1.13,7.815l-1.135-7.82    c-0.054-0.359-0.216-0.688-0.477-0.949c-0.26-0.256-0.59-0.428-0.949-0.477l-7.815-1.13l7.82-1.135    c0.359-0.054,0.688-0.216,0.949-0.477c0.256-0.256,0.428-0.59,0.477-0.949L501.586,87.5z"/>
		<path fill="#1D2445" d="M501.588,111.737l-1.632-11.234c-0.038-0.254-0.154-0.485-0.336-0.667    c-0.188-0.184-0.418-0.301-0.662-0.334l-11.233-1.625l11.233-1.631c0.255-0.038,0.487-0.154,0.668-0.336    c0.183-0.183,0.302-0.418,0.335-0.662l1.625-11.234l1.631,11.234c0.038,0.254,0.154,0.485,0.336,0.667    c0.188,0.184,0.418,0.301,0.662,0.334l11.233,1.625l-11.233,1.631c-0.255,0.038-0.487,0.154-0.668,0.336    c-0.183,0.183-0.302,0.418-0.335,0.662L501.588,111.737z M494.697,97.874l4.399,0.637c0.456,0.062,0.882,0.275,1.228,0.615    c0.338,0.338,0.551,0.763,0.621,1.232l0.641,4.407l0.636-4.4c0.063-0.455,0.281-0.893,0.617-1.23    c0.335-0.334,0.76-0.547,1.229-0.618l4.407-0.64l-4.399-0.636c-0.456-0.062-0.882-0.275-1.228-0.615    c-0.338-0.339-0.552-0.763-0.621-1.232l-0.64-4.407l-0.637,4.4c-0.063,0.455-0.281,0.893-0.617,1.23    c-0.335,0.334-0.76,0.547-1.229,0.618L494.697,97.874z"/>
	</g>
	<g>
		<path fill="#FFFFFF" d="M454.586,226.5l0.807,5.559c0.038,0.255,0.154,0.489,0.339,0.674c0.185,0.182,0.419,0.304,0.674,0.339    l5.555,0.804l-5.559,0.807c-0.255,0.038-0.489,0.154-0.674,0.339c-0.182,0.182-0.304,0.419-0.339,0.674l-0.804,5.555l-0.807-5.559    c-0.038-0.255-0.154-0.489-0.339-0.674c-0.185-0.182-0.419-0.304-0.674-0.339l-5.555-0.804l5.559-0.807    c0.255-0.038,0.489-0.154,0.674-0.339c0.182-0.182,0.304-0.419,0.339-0.674L454.586,226.5z"/>
		<path fill="#1D2445" d="M454.588,244.737l-1.304-8.973c-0.022-0.15-0.091-0.286-0.197-0.392c-0.11-0.109-0.246-0.178-0.388-0.197    l-8.975-1.298l8.973-1.303c0.149-0.022,0.287-0.091,0.394-0.198c0.107-0.107,0.178-0.245,0.197-0.389l1.298-8.974l1.303,8.974    c0.022,0.149,0.091,0.286,0.197,0.392c0.11,0.109,0.246,0.178,0.388,0.197l8.975,1.298l-8.973,1.303    c-0.149,0.022-0.287,0.091-0.394,0.198c-0.107,0.107-0.178,0.245-0.197,0.389L454.588,244.737z M450.697,233.874l2.141,0.31    c0.353,0.048,0.684,0.213,0.952,0.476c0.263,0.262,0.43,0.592,0.483,0.958l0.313,2.146l0.309-2.14    c0.049-0.355,0.22-0.696,0.48-0.956c0.26-0.259,0.589-0.425,0.954-0.48l2.146-0.312l-2.141-0.31    c-0.353-0.048-0.684-0.213-0.952-0.476c-0.264-0.262-0.43-0.593-0.483-0.958l-0.312-2.146l-0.31,2.14    c-0.049,0.355-0.22,0.696-0.48,0.956c-0.26,0.259-0.589,0.425-0.954,0.48L450.697,233.874z"/>
	</g>
	<g>
		<path fill="#FFFFFF" d="M46.586,33.5l1.464,10.081c0.07,0.463,0.279,0.887,0.615,1.223c0.336,0.329,0.76,0.551,1.223,0.615    l10.074,1.457l-10.081,1.464c-0.463,0.07-0.887,0.279-1.223,0.615c-0.329,0.329-0.551,0.76-0.615,1.223l-1.457,10.074    L45.123,50.17c-0.07-0.463-0.279-0.887-0.615-1.223c-0.336-0.329-0.76-0.551-1.223-0.615l-10.074-1.457l10.081-1.464    c0.463-0.07,0.887-0.279,1.223-0.615c0.329-0.329,0.551-0.76,0.615-1.223L46.586,33.5z"/>
		<path fill="#1D2445" d="M46.587,63.737l-1.959-13.495c-0.055-0.359-0.218-0.686-0.474-0.941c-0.266-0.261-0.591-0.426-0.938-0.473    l-13.493-1.952l13.495-1.959c0.359-0.054,0.686-0.218,0.941-0.474c0.257-0.257,0.425-0.59,0.473-0.937l1.951-13.493l1.959,13.495    c0.054,0.359,0.218,0.685,0.473,0.941c0.266,0.261,0.591,0.425,0.938,0.473l13.493,1.952l-13.495,1.959    c-0.359,0.054-0.686,0.218-0.941,0.474c-0.257,0.257-0.425,0.59-0.472,0.937L46.587,63.737z M36.697,46.874l6.66,0.963    c0.557,0.076,1.078,0.337,1.501,0.753c0.411,0.411,0.672,0.93,0.759,1.505l0.968,6.669l0.964-6.66    c0.076-0.558,0.344-1.094,0.755-1.505c0.408-0.408,0.927-0.669,1.502-0.755l6.668-0.968l-6.66-0.963    c-0.557-0.076-1.078-0.337-1.501-0.753c-0.412-0.412-0.672-0.931-0.759-1.506l-0.968-6.669l-0.963,6.66    c-0.077,0.559-0.345,1.094-0.756,1.505c-0.408,0.408-0.927,0.669-1.502,0.755L36.697,46.874z"/>
	</g>
	<g>
		<path fill="#FFFFFF" d="M349.586,215.5l1.245,8.573c0.059,0.393,0.237,0.754,0.523,1.04c0.286,0.28,0.647,0.469,1.04,0.523    l8.568,1.239l-8.573,1.245c-0.393,0.059-0.754,0.237-1.04,0.523c-0.28,0.28-0.469,0.647-0.523,1.04l-1.239,8.568l-1.245-8.573    c-0.059-0.393-0.237-0.754-0.523-1.04c-0.286-0.28-0.647-0.469-1.04-0.523l-8.568-1.239l8.573-1.245    c0.393-0.059,0.754-0.237,1.04-0.523c0.28-0.28,0.469-0.647,0.523-1.04L349.586,215.5z"/>
		<path fill="#1D2445" d="M349.588,241.737l-1.741-11.987c-0.044-0.289-0.176-0.553-0.381-0.759    c-0.214-0.209-0.477-0.342-0.755-0.381l-11.986-1.734l11.987-1.74c0.29-0.044,0.554-0.176,0.759-0.381    c0.207-0.208,0.343-0.475,0.381-0.754l1.734-11.986l1.74,11.987c0.044,0.289,0.176,0.553,0.381,0.759    c0.214,0.209,0.477,0.343,0.755,0.381l11.986,1.734l-11.987,1.74c-0.29,0.044-0.554,0.176-0.759,0.381    c-0.207,0.208-0.343,0.475-0.381,0.754L349.588,241.737z M341.697,226.874l5.153,0.745c0.489,0.067,0.946,0.296,1.318,0.66    c0.361,0.362,0.591,0.818,0.667,1.323l0.75,5.162l0.745-5.154c0.067-0.49,0.303-0.961,0.664-1.322    c0.357-0.358,0.813-0.587,1.319-0.664l5.161-0.749l-5.153-0.745c-0.489-0.067-0.946-0.296-1.318-0.66    c-0.361-0.362-0.591-0.818-0.667-1.322l-0.749-5.162l-0.746,5.154c-0.067,0.49-0.303,0.961-0.664,1.322    c-0.357,0.358-0.813,0.587-1.319,0.663L341.697,226.874z"/>
	</g>
	<g>
		<path fill="#FFFFFF" d="M245.586,232.5l1.354,9.327c0.064,0.428,0.258,0.821,0.569,1.131c0.311,0.305,0.703,0.51,1.131,0.569    l9.321,1.348l-9.327,1.354c-0.428,0.064-0.821,0.258-1.131,0.569c-0.305,0.305-0.51,0.703-0.569,1.131l-1.348,9.321l-1.354-9.327    c-0.064-0.428-0.258-0.821-0.569-1.131c-0.311-0.305-0.703-0.51-1.131-0.569l-9.321-1.348l9.327-1.354    c0.428-0.064,0.821-0.258,1.131-0.569c0.305-0.305,0.51-0.703,0.569-1.131L245.586,232.5z"/>
		<path fill="#1D2445" d="M245.587,260.737l-1.85-12.742c-0.049-0.324-0.197-0.619-0.428-0.85c-0.24-0.235-0.533-0.384-0.846-0.427    l-12.74-1.843l12.742-1.85c0.324-0.049,0.619-0.197,0.85-0.427c0.232-0.233,0.384-0.533,0.427-0.846l1.843-12.74l1.85,12.742    c0.049,0.324,0.197,0.619,0.428,0.85c0.24,0.235,0.533,0.384,0.846,0.427l12.74,1.843l-12.742,1.85    c-0.324,0.049-0.619,0.197-0.85,0.427c-0.232,0.233-0.384,0.533-0.427,0.846L245.587,260.737z M236.697,244.875l5.907,0.854    c0.523,0.072,1.012,0.316,1.41,0.707c0.387,0.386,0.632,0.874,0.713,1.414l0.858,5.915l0.854-5.906    c0.071-0.524,0.324-1.027,0.71-1.413c0.382-0.383,0.87-0.628,1.41-0.709l5.916-0.859l-5.907-0.854    c-0.523-0.072-1.012-0.316-1.41-0.707c-0.386-0.386-0.631-0.873-0.713-1.413l-0.859-5.915l-0.854,5.906    c-0.071,0.524-0.324,1.027-0.71,1.413c-0.382,0.383-0.87,0.628-1.41,0.71L236.697,244.875z"/>
	</g>
	<g>
		<circle fill="#FFFFFF" cx="132.5" cy="56.5" r="3"/>
		<path fill="#1D2445" d="M132.5,60c-1.93,0-3.5-1.57-3.5-3.5s1.57-3.5,3.5-3.5s3.5,1.57,3.5,3.5S134.43,60,132.5,60z M132.5,54    c-1.378,0-2.5,1.121-2.5,2.5s1.122,2.5,2.5,2.5s2.5-1.121,2.5-2.5S133.878,54,132.5,54z"/>
	</g>
	<g>
		<circle fill="#FFFFFF" cx="149.5" cy="37.5" r="2"/>
		<path fill="#1D2445" d="M149.5,40c-1.378,0-2.5-1.121-2.5-2.5s1.122-2.5,2.5-2.5s2.5,1.121,2.5,2.5S150.878,40,149.5,40z     M149.5,36c-0.827,0-1.5,0.673-1.5,1.5s0.673,1.5,1.5,1.5s1.5-0.673,1.5-1.5S150.327,36,149.5,36z"/>
	</g>
	<g>
		<circle fill="#FFFFFF" cx="26.5" cy="229.617" r="2"/>
		<path fill="#1D2445" d="M26.5,232.117c-1.378,0-2.5-1.121-2.5-2.5s1.122-2.5,2.5-2.5s2.5,1.121,2.5,2.5    S27.878,232.117,26.5,232.117z M26.5,228.117c-0.827,0-1.5,0.673-1.5,1.5s0.673,1.5,1.5,1.5s1.5-0.673,1.5-1.5    S27.327,228.117,26.5,228.117z"/>
	</g>
	<g>
		<circle fill="#FFFFFF" cx="191.5" cy="147.5" r="2"/>
		<path fill="#1D2445" d="M191.5,150c-1.378,0-2.5-1.121-2.5-2.5s1.122-2.5,2.5-2.5s2.5,1.121,2.5,2.5S192.878,150,191.5,150z     M191.5,146c-0.827,0-1.5,0.673-1.5,1.5s0.673,1.5,1.5,1.5s1.5-0.673,1.5-1.5S192.327,146,191.5,146z"/>
	</g>
	<g>
		<circle fill="#FFFFFF" cx="67.211" cy="257.251" r="2"/>
		<path fill="#1D2445" d="M67.211,259.751c-1.378,0-2.5-1.121-2.5-2.5c0-1.379,1.122-2.5,2.5-2.5s2.5,1.121,2.5,2.5    C69.711,258.629,68.589,259.751,67.211,259.751z M67.211,255.751c-0.827,0-1.5,0.673-1.5,1.5s0.673,1.5,1.5,1.5s1.5-0.673,1.5-1.5    S68.038,255.751,67.211,255.751z"/>
	</g>
	<g>
		<circle fill="#FFFFFF" cx="277.5" cy="120.5" r="2"/>
		<path fill="#1D2445" d="M277.5,123c-1.378,0-2.5-1.121-2.5-2.5s1.122-2.5,2.5-2.5s2.5,1.121,2.5,2.5S278.878,123,277.5,123z     M277.5,119c-0.827,0-1.5,0.673-1.5,1.5s0.673,1.5,1.5,1.5s1.5-0.673,1.5-1.5S278.327,119,277.5,119z"/>
	</g>
	<g>
		<circle fill="#FFFFFF" cx="221.5" cy="98.5" r="2"/>
		<path fill="#1D2445" d="M221.5,101c-1.378,0-2.5-1.121-2.5-2.5s1.122-2.5,2.5-2.5s2.5,1.121,2.5,2.5S222.878,101,221.5,101z     M221.5,97c-0.827,0-1.5,0.673-1.5,1.5s0.673,1.5,1.5,1.5s1.5-0.673,1.5-1.5S222.327,97,221.5,97z"/>
	</g>
	<g>
		<circle fill="#FFFFFF" cx="221.5" cy="88.5" r="2"/>
		<path fill="#1D2445" d="M221.5,91c-1.378,0-2.5-1.121-2.5-2.5s1.122-2.5,2.5-2.5s2.5,1.121,2.5,2.5S222.878,91,221.5,91z     M221.5,87c-0.827,0-1.5,0.673-1.5,1.5s0.673,1.5,1.5,1.5s1.5-0.673,1.5-1.5S222.327,87,221.5,87z"/>
	</g>
	<g>
		<circle fill="#FFFFFF" cx="189.5" cy="288.833" r="2"/>
		<path fill="#1D2445" d="M189.5,291.333c-1.378,0-2.5-1.121-2.5-2.5s1.122-2.5,2.5-2.5s2.5,1.121,2.5,2.5    S190.878,291.333,189.5,291.333z M189.5,287.333c-0.827,0-1.5,0.673-1.5,1.5s0.673,1.5,1.5,1.5s1.5-0.673,1.5-1.5    S190.327,287.333,189.5,287.333z"/>
	</g>
	<g>
		<circle fill="#FFFFFF" cx="182.5" cy="82.5" r="2"/>
		<path fill="#1D2445" d="M182.5,85c-1.378,0-2.5-1.121-2.5-2.5s1.122-2.5,2.5-2.5s2.5,1.121,2.5,2.5S183.878,85,182.5,85z     M182.5,81c-0.827,0-1.5,0.673-1.5,1.5s0.673,1.5,1.5,1.5s1.5-0.673,1.5-1.5S183.327,81,182.5,81z"/>
	</g>
	<g>
		<circle fill="#FFFFFF" cx="242.5" cy="2.5" r="2"/>
		<path fill="#1D2445" d="M242.5,5c-1.378,0-2.5-1.121-2.5-2.5s1.122-2.5,2.5-2.5s2.5,1.121,2.5,2.5S243.878,5,242.5,5z M242.5,1    c-0.827,0-1.5,0.673-1.5,1.5s0.673,1.5,1.5,1.5s1.5-0.673,1.5-1.5S243.327,1,242.5,1z"/>
	</g>
	<g>
		<circle fill="#FFFFFF" cx="284.5" cy="191.5" r="2"/>
		<path fill="#1D2445" d="M284.5,194c-1.378,0-2.5-1.121-2.5-2.5s1.122-2.5,2.5-2.5s2.5,1.121,2.5,2.5S285.878,194,284.5,194z     M284.5,190c-0.827,0-1.5,0.673-1.5,1.5s0.673,1.5,1.5,1.5s1.5-0.673,1.5-1.5S285.327,190,284.5,190z"/>
	</g>
	<g>
		<circle fill="#FFFFFF" cx="101.81" cy="266.19" r="4.021"/>
		<path fill="#1D2445" d="M101.81,270.711c-2.493,0-4.521-2.028-4.521-4.521s2.028-4.521,4.521-4.521s4.521,2.028,4.521,4.521    S104.303,270.711,101.81,270.711z M101.81,262.669c-1.941,0-3.521,1.58-3.521,3.521s1.58,3.521,3.521,3.521    s3.521-1.58,3.521-3.521S103.751,262.669,101.81,262.669z"/>
	</g>
	<g>
		<circle fill="#FFFFFF" cx="473.5" cy="166.5" r="3"/>
		<path fill="#1D2445" d="M473.5,170c-1.93,0-3.5-1.57-3.5-3.5s1.57-3.5,3.5-3.5s3.5,1.57,3.5,3.5S475.43,170,473.5,170z M473.5,164    c-1.379,0-2.5,1.121-2.5,2.5s1.121,2.5,2.5,2.5s2.5-1.121,2.5-2.5S474.879,164,473.5,164z"/>
	</g>
	<g>
		<circle fill="#FFFFFF" cx="169.5" cy="147.5" r="3"/>
		<path fill="#1D2445" d="M169.5,151c-1.93,0-3.5-1.57-3.5-3.5s1.57-3.5,3.5-3.5s3.5,1.57,3.5,3.5S171.43,151,169.5,151z M169.5,145    c-1.378,0-2.5,1.121-2.5,2.5s1.122,2.5,2.5,2.5s2.5-1.121,2.5-2.5S170.878,145,169.5,145z"/>
	</g>
	<g>
		<circle fill="#FFFFFF" cx="352.5" cy="194.5" r="3"/>
		<path fill="#1D2445" d="M352.5,198c-1.93,0-3.5-1.57-3.5-3.5s1.57-3.5,3.5-3.5s3.5,1.57,3.5,3.5S354.43,198,352.5,198z M352.5,192    c-1.379,0-2.5,1.121-2.5,2.5s1.121,2.5,2.5,2.5s2.5-1.121,2.5-2.5S353.879,192,352.5,192z"/>
	</g>
	<g>
		<circle fill="#FFFFFF" cx="278.5" cy="51.5" r="3"/>
		<path fill="#1D2445" d="M278.5,55c-1.93,0-3.5-1.57-3.5-3.5s1.57-3.5,3.5-3.5s3.5,1.57,3.5,3.5S280.43,55,278.5,55z M278.5,49    c-1.378,0-2.5,1.121-2.5,2.5s1.122,2.5,2.5,2.5s2.5-1.121,2.5-2.5S279.878,49,278.5,49z"/>
	</g>
	<g>
		<circle fill="#FFFFFF" cx="331.5" cy="296.5" r="3"/>
		<path fill="#1D2445" d="M331.5,300c-1.93,0-3.5-1.57-3.5-3.5s1.57-3.5,3.5-3.5s3.5,1.57,3.5,3.5S333.43,300,331.5,300z M331.5,294    c-1.379,0-2.5,1.121-2.5,2.5s1.121,2.5,2.5,2.5s2.5-1.121,2.5-2.5S332.879,294,331.5,294z"/>
	</g>
	<g>
		<circle fill="#FFFFFF" cx="133.5" cy="118.5" r="3"/>
		<path fill="#1D2445" d="M133.5,122c-1.93,0-3.5-1.57-3.5-3.5s1.57-3.5,3.5-3.5s3.5,1.57,3.5,3.5S135.43,122,133.5,122z M133.5,116    c-1.378,0-2.5,1.121-2.5,2.5s1.122,2.5,2.5,2.5s2.5-1.121,2.5-2.5S134.878,116,133.5,116z"/>
	</g>
	<g>
		<circle fill="#FFFFFF" cx="491.211" cy="178.517" r="2"/>
		<path fill="#1D2445" d="M491.211,181.017c-1.379,0-2.5-1.121-2.5-2.5s1.121-2.5,2.5-2.5s2.5,1.121,2.5,2.5    S492.59,181.017,491.211,181.017z M491.211,177.017c-0.827,0-1.5,0.673-1.5,1.5s0.673,1.5,1.5,1.5s1.5-0.673,1.5-1.5    S492.038,177.017,491.211,177.017z"/>
	</g>
	<g>
		<circle fill="#FFFFFF" cx="501.409" cy="151.5" r="3"/>
		<path fill="#1D2445" d="M501.409,155c-1.93,0-3.5-1.57-3.5-3.5s1.57-3.5,3.5-3.5s3.5,1.57,3.5,3.5S503.339,155,501.409,155z     M501.409,149c-1.379,0-2.5,1.121-2.5,2.5s1.121,2.5,2.5,2.5s2.5-1.121,2.5-2.5S502.788,149,501.409,149z"/>
	</g>
	<g>
		<circle fill="#FFFFFF" cx="355.5" cy="286.833" r="3"/>
		<path fill="#1D2445" d="M355.5,290.333c-1.93,0-3.5-1.57-3.5-3.5s1.57-3.5,3.5-3.5s3.5,1.57,3.5,3.5S357.43,290.333,355.5,290.333    z M355.5,284.333c-1.379,0-2.5,1.121-2.5,2.5s1.121,2.5,2.5,2.5s2.5-1.121,2.5-2.5S356.879,284.333,355.5,284.333z"/>
	</g>
	<g>
		<circle fill="#FFFFFF" cx="407.5" cy="215.5" r="2"/>
		<path fill="#1D2445" d="M407.5,218c-1.379,0-2.5-1.121-2.5-2.5s1.121-2.5,2.5-2.5s2.5,1.121,2.5,2.5S408.879,218,407.5,218z     M407.5,214c-0.827,0-1.5,0.673-1.5,1.5s0.673,1.5,1.5,1.5s1.5-0.673,1.5-1.5S408.327,214,407.5,214z"/>
	</g>
	<g>
		<circle fill="#FFFFFF" cx="261.646" cy="195.354" r="1.619"/>
		<path fill="#1D2445" d="M261.646,197.472c-1.168,0-2.119-0.95-2.119-2.119s0.95-2.119,2.119-2.119s2.119,0.95,2.119,2.119    S262.815,197.472,261.646,197.472z M261.646,194.235c-0.617,0-1.119,0.502-1.119,1.119s0.502,1.119,1.119,1.119    s1.119-0.502,1.119-1.119S262.263,194.235,261.646,194.235z"/>
	</g>
	<g>
		<circle fill="#FFFFFF" cx="60.5" cy="99.5" r="2"/>
		<path fill="#1D2445" d="M60.5,102c-1.378,0-2.5-1.121-2.5-2.5s1.122-2.5,2.5-2.5s2.5,1.121,2.5,2.5S61.878,102,60.5,102z M60.5,98    c-0.827,0-1.5,0.673-1.5,1.5s0.673,1.5,1.5,1.5s1.5-0.673,1.5-1.5S61.327,98,60.5,98z"/>
	</g>
	<g>
		<circle fill="#FFFFFF" cx="3.5" cy="118.5" r="3"/>
		<path fill="#1D2445" d="M3.5,122c-1.93,0-3.5-1.57-3.5-3.5s1.57-3.5,3.5-3.5s3.5,1.57,3.5,3.5S5.43,122,3.5,122z M3.5,116    c-1.378,0-2.5,1.121-2.5,2.5s1.122,2.5,2.5,2.5s2.5-1.121,2.5-2.5S4.878,116,3.5,116z"/>
	</g>
	<g>
		<path fill="#FFFFFF" d="M289.586,151.5l0.588,4.051c0.028,0.186,0.112,0.356,0.247,0.491c0.135,0.132,0.306,0.222,0.491,0.247    l4.049,0.586l-4.051,0.588c-0.186,0.028-0.356,0.112-0.491,0.247c-0.132,0.132-0.222,0.306-0.247,0.491l-0.586,4.049l-0.588-4.051    c-0.028-0.186-0.112-0.356-0.247-0.491c-0.135-0.132-0.306-0.222-0.491-0.247l-4.049-0.586l4.051-0.588    c0.186-0.028,0.357-0.112,0.491-0.247c0.132-0.132,0.222-0.306,0.247-0.491L289.586,151.5z"/>
		<path fill="#1D2445" d="M289.587,165.737l-1.084-7.466c-0.012-0.081-0.048-0.152-0.106-0.21c-0.039-0.039-0.111-0.092-0.205-0.105    l-7.467-1.08l7.465-1.084c0.081-0.012,0.152-0.048,0.21-0.106c0.057-0.057,0.094-0.131,0.105-0.207l1.08-7.466l1.084,7.466    c0.012,0.081,0.048,0.152,0.105,0.209c0.059,0.058,0.131,0.095,0.206,0.105l7.468,1.08l-7.466,1.084    c-0.081,0.012-0.152,0.048-0.21,0.106c-0.057,0.057-0.094,0.131-0.105,0.207L289.587,165.737z M287.697,156.874l0.635,0.092    c0.285,0.039,0.553,0.172,0.77,0.385c0.213,0.214,0.347,0.48,0.392,0.775l0.093,0.639l0.092-0.634    c0.04-0.287,0.178-0.563,0.388-0.773c0.21-0.21,0.477-0.344,0.771-0.388l0.64-0.093l-0.635-0.092    c-0.286-0.039-0.553-0.172-0.77-0.385c-0.212-0.212-0.347-0.479-0.391-0.774l-0.093-0.639l-0.092,0.634    c-0.04,0.287-0.178,0.563-0.388,0.773c-0.21,0.21-0.477,0.344-0.771,0.388L287.697,156.874z"/>
	</g>
</g>

            </g>
        </g>
    </g>
    
    <!-- ITEM 2 -->
    <g>
        <defs>
            <clipPath id="clip-path-id-viewbox-item-2">
                <rect x="0.0" y="0.0" width="282.323" height="168.015"/>
            </clipPath>
        </defs>
        <g transform="translate(519.0 326.0) rotate(0.0 275.5 164.5) scale(1.951665291173585 1.958158497753177)">
            <g clip-path="url(#clip-path-id-viewbox-item-2)" transform="translate(-0.0 -0.0)">
                
<g>
	<g>
		<path fill="#1D2445" d="M9.551,161.404l-3.138-2.481l1.241-1.569c0.036-0.046,3.68-4.65,9.532-11.803    c20.85-25.485,70.912-50.649,93.947-47.239c0.647,0.096,1.258,0.213,1.836,0.349c-11.462-22.458-30.755-72.158-5.926-89.893    c21.262-15.19,35.732,1.452,48.498,16.132c8.412,9.675,16.399,18.811,25.228,18.409c6.218-0.283,12.699-5.217,19.814-15.083    C226.437-7.624,250.812-0.82,260.09,3.771c15.352,7.594,25.335,25.758,21.364,38.87l-0.579,1.914l-3.829-1.159l0.58-1.914    c3.387-11.185-5.817-27.451-19.31-34.126c-17.683-8.747-37.543-0.289-54.488,23.209c-7.876,10.922-15.359,16.397-22.877,16.739    c-0.259,0.012-0.519,0.018-0.774,0.018c-10.439,0.001-18.806-9.623-27.653-19.797c-12.779-14.697-24.85-28.576-43.155-15.502    c-5.764,4.118-9.167,10.702-10.114,19.569c-2.543,23.812,12.955,57.578,19.727,69.895c1.59,1.316,2.524,2.816,3.074,4.145    c0.349,0.844,1.166,2.821-0.615,3.721c-1.863,0.941-2.953-0.866-4.219-2.956c-0.396-0.656-0.83-1.397-1.293-2.214    c-1.349-0.943-3.146-1.583-5.379-1.914c-19.701-2.913-68.845,19.632-90.267,45.815c-5.83,7.125-9.455,11.706-9.491,11.752    L9.551,161.404z"/>
	</g>
	<g>
		<g>
			<path fill="#FFFFFF" d="M9.074,167.316l-8.368-6.618l17.242-21.381c0.62-0.768,1.746-0.885,2.51-0.26l5.505,4.504     c0.756,0.619,0.872,1.732,0.258,2.492L9.074,167.316z"/>
			<path fill="#1D2445" d="M9.075,167.816c-0.109,0-0.219-0.035-0.311-0.108l-8.368-6.618c-0.104-0.083-0.172-0.204-0.187-0.337     s0.024-0.266,0.107-0.37l17.241-21.381c0.764-0.946,2.274-1.104,3.216-0.333l5.505,4.504c0.965,0.79,1.113,2.222,0.331,3.193     L9.464,167.63C9.365,167.752,9.22,167.816,9.075,167.816z M1.413,160.619l7.584,5.997l16.834-20.877     c0.439-0.545,0.356-1.348-0.185-1.792l-5.505-4.504c-0.532-0.435-1.373-0.347-1.804,0.187L1.413,160.619z"/>
		</g>
	</g>
	<g>
		<g>
			<polygon fill="#FFFFFF" points="13.545,161.702 5.177,155.084 15.422,142.42 23.679,149.176    "/>
			<path fill="#1D2445" d="M13.545,162.202c-0.109,0-0.219-0.035-0.311-0.108l-8.368-6.618c-0.104-0.083-0.172-0.204-0.187-0.337     c-0.015-0.133,0.024-0.266,0.108-0.37l10.245-12.664c0.084-0.104,0.205-0.169,0.338-0.183c0.13-0.014,0.265,0.026,0.367,0.11     l8.257,6.755c0.213,0.174,0.245,0.488,0.072,0.701l-10.134,12.526C13.835,162.138,13.691,162.202,13.545,162.202z M5.884,155.006     l7.583,5.997l9.511-11.755l-7.483-6.122L5.884,155.006z"/>
		</g>
	</g>
</g>

            </g>
        </g>
    </g>
    
    <!-- ITEM 3 -->
    <g>
        <defs>
            <clipPath id="clip-path-id-viewbox-item-3">
                <rect x="0.0" y="0.0" width="159.513" height="258.156"/>
            </clipPath>
        </defs>
        <g transform="translate(1166.0 0.0) rotate(0.0 136.5 220.0) scale(1.7114592541046811 1.7043957916918453)">
            <g clip-path="url(#clip-path-id-viewbox-item-3)" transform="translate(-0.0 -0.0)">
                
<g>
	<path fill="#1D2445" d="M66.655,258.196c-18.595,0.001-37.879-5.186-64.732-12.944L0,244.697l1.11-3.843l1.921,0.555   c45.252,13.073,68.562,18.706,103.676,4.075c25.929-10.804,43.852-31.515,47.944-55.402c3.622-21.14-4.019-41.478-21.515-57.267   c-11.06-9.98-21.907-18.228-31.478-25.505c-17.683-13.445-30.459-23.159-30.222-33.41c0.122-5.263,3.688-10.241,10.903-15.217   c3.959-2.73,7.768-5.28,11.451-7.746c22.962-15.371,39.552-26.476,43.718-48.972L137.874,0l3.934,0.728l-0.364,1.967   c-4.473,24.154-21.651,35.653-45.426,51.568c-3.673,2.458-7.47,5-11.405,7.714c-6.084,4.196-9.086,8.127-9.176,12.016   c-0.19,8.21,12.534,17.884,28.644,30.133c9.634,7.324,20.552,15.626,31.736,25.719c18.55,16.74,26.64,38.373,22.777,60.912   c-4.325,25.246-23.146,47.085-50.348,58.419C93.038,255.513,80.024,258.196,66.655,258.196z"/>
</g>

            </g>
        </g>
    </g>
    
    <!-- ITEM 4 -->
    <g>
        <defs>
            <clipPath id="clip-path-id-viewbox-item-4">
                <rect x="0.0" y="0.0" width="133.909" height="102.735"/>
            </clipPath>
        </defs>
        <g transform="translate(294.0 826.0) rotate(0.0 129.5 99.5) scale(1.9341493103525529 1.937022436365406)">
            <g clip-path="url(#clip-path-id-viewbox-item-4)" transform="translate(-0.0 -0.0)">
                
<g>
	<g>
		<path fill="#EEEEEE" d="M51.658,25.497c-0.112,0.375-0.208,0.743-0.288,1.101L51.658,25.497z"/>
	</g>
	<g>
		<path fill="#EEEEEE" d="M70.198,17.225L70.198,17.225C70.177,17.23,70.173,17.231,70.198,17.225z"/>
	</g>
	<g>
		<path fill="#FFFFFF" d="M132.235,18.694c-2.468-3.221-5.253-5.517-5.253-5.517s-1.065-2.608-3.862-4.617    c-8.363-6.008-24.719,1.261-28.437,2.413c-4.736,1.468-26.034,7.117-36.839,8.51c-2.273,9.543,10.099,12.07-0.26,10.848    c-5.109-1.068-6.982,0.455-6.123-3.599l-0.008,0.016l0.038-0.147c0.079-0.357,3.517-0.091,3.627-0.462    c0,0,17.031-2.412,4.362-6.936c-5.882-2.1-17.722-2.506-17.722-2.506l-2.515,0.888c0,0-10.098-6.996-21.925-14.328    c-5.424-3.362-9.527-1.229-9.527-1.229l-7.062,2.61l21.466,37.198l-2.21,5.18l15.183,20.256l8.3,2.268l9.63-2.518    c0,0,36.623-8.318,57.135-20.164c0,0,6.077-3.03,9.228-5.624c6.496-5.346,7.7-8.505,10.626-11.818    C134.735,24.154,133.542,20.397,132.235,18.694z"/>
		<path fill="#1D2445" d="M43.468,70.04c-0.044,0-0.089-0.006-0.132-0.018l-8.3-2.268c-0.107-0.029-0.201-0.094-0.269-0.183    L19.585,47.315c-0.106-0.143-0.13-0.332-0.06-0.496l2.112-4.95L0.297,4.889c-0.074-0.128-0.088-0.281-0.038-0.42    C0.31,4.33,0.418,4.221,0.556,4.17l7.062-2.611c0-0.004,1.359-0.698,3.537-0.698c2.154,0,4.317,0.663,6.428,1.971    C28.353,9.51,37.803,15.986,39.318,17.029l2.273-0.803c0.06-0.021,0.12-0.031,0.185-0.028c0.485,0.017,11.954,0.432,17.849,2.526    c10.927-1.687,30.196-6.768,34.911-8.229c0.474-0.146,1.152-0.393,1.995-0.699c3.937-1.428,11.263-4.087,17.936-4.087    c3.679,0,6.688,0.823,8.947,2.445c2.572,1.848,3.73,4.163,3.98,4.716c0.515,0.435,2.986,2.582,5.238,5.521    c0.857,1.117,3.234,5.239-2.17,11.357c-0.875,0.991-1.598,1.972-2.361,3.011c-1.76,2.392-3.754,5.103-8.323,8.863    c-3.157,2.6-9.071,5.561-9.322,5.685c-20.314,11.733-56.88,20.121-57.247,20.204l-9.613,2.514    C43.553,70.035,43.511,70.04,43.468,70.04z M35.465,66.835l8.006,2.188l9.5-2.484c0.382-0.087,36.802-8.441,57.012-20.113    c0.087-0.045,6.09-3.049,9.16-5.577c4.473-3.681,6.428-6.338,8.152-8.683c0.777-1.057,1.513-2.056,2.417-3.08    c4.766-5.394,3.075-8.851,2.127-10.086c-2.403-3.135-5.147-5.413-5.175-5.436c-0.063-0.052-0.113-0.12-0.145-0.196    c-0.01-0.025-1.055-2.507-3.69-4.401c-2.084-1.497-4.898-2.257-8.363-2.257c-6.497,0-13.716,2.62-17.595,4.027    c-0.861,0.313-1.556,0.564-2.039,0.714c-4.09,1.267-21.781,6.013-33.392,7.992c2.253,1.001,3.286,1.988,3.224,3.057    c-0.078,1.334-1.903,2.435-5.575,3.358c0.68,1.273,1.555,2.233,2.215,2.958c0.716,0.786,1.148,1.26,0.916,1.785    c-0.201,0.455-0.766,0.518-1.346,0.518c-0.636,0-1.606-0.084-3.349-0.29c-1.483-0.308-2.658-0.399-3.602-0.471    c-1.39-0.107-2.308-0.178-2.818-0.86c-0.407-0.544-0.451-1.328-0.151-2.779c0.002-0.031,0.007-0.063,0.015-0.094l0.038-0.147    c0.12-0.54,0.742-0.557,2.246-0.599c0.511-0.014,1.263-0.035,1.52-0.099c0.074-0.071,0.17-0.119,0.275-0.134    c0.013-0.002,1.167-0.167,2.626-0.484c-0.692-1.82-0.8-3.765-0.316-5.794c0.021-0.092,0.068-0.173,0.132-0.237    c-5.827-1.502-14.649-1.889-15.655-1.929l-2.424,0.856c-0.154,0.053-0.32,0.031-0.452-0.061    c-0.101-0.07-10.223-7.073-21.903-14.314c-1.949-1.209-3.935-1.822-5.9-1.822c-1.917,0-3.122,0.605-3.134,0.611L1.459,4.902    l21.169,36.684c0.079,0.136,0.089,0.302,0.027,0.446l-2.097,4.914L35.465,66.835z M51.928,26.95    c-0.217,1.058-0.223,1.677-0.021,1.947c0.238,0.319,1.018,0.379,2.095,0.462c0.972,0.075,2.182,0.168,3.686,0.482    c1.898,0.222,2.954,0.296,3.427,0.27c-0.147-0.183-0.362-0.419-0.549-0.624c-0.695-0.763-1.72-1.888-2.479-3.393    c-1.273,0.283-2.333,0.455-2.731,0.516c-0.333,0.219-0.987,0.237-2.074,0.267C52.848,26.889,52.234,26.906,51.928,26.95z     M58.256,19.933c-0.357,1.754-0.223,3.433,0.402,5c3.627-0.893,4.971-1.866,5.008-2.493c0.02-0.349-0.347-1.304-4.143-2.689    C59.088,19.817,58.665,19.878,58.256,19.933z"/>
	</g>
	<g>
		<path fill="#FFFFFF" d="M88.048,73.37c-1.011-8.413,0.494-9.812,4.29-13.459c3.236-3.109,10.967-8.144,17.887-13.165    c-19.854,9.622-31.785,10.36-57.13,20.276l-13.446,2.497l41.444,32.591l5.85-4.218c0,0,2.584-1.648,3.507-4.414    C92.018,88.775,89.061,81.782,88.048,73.37z"/>
		<path fill="#1D2445" d="M81.093,102.609c-0.109,0-0.219-0.036-0.309-0.107L39.341,69.912c-0.155-0.121-0.224-0.322-0.177-0.513    s0.201-0.336,0.395-0.372l13.446-2.497c11.112-4.358,19.817-6.986,27.498-9.306c9.899-2.989,18.448-5.571,29.505-10.929    c0.231-0.113,0.514-0.029,0.646,0.193c0.134,0.222,0.074,0.509-0.135,0.662c-2.16,1.567-4.399,3.135-6.556,4.646    c-4.67,3.271-9.08,6.361-11.278,8.474c-3.739,3.59-5.117,4.914-4.142,13.039c0.36,2.992,0.957,5.749,1.533,8.414    c1.018,4.703,1.896,8.765,0.848,11.912c-0.969,2.901-3.602,4.606-3.714,4.677l-5.826,4.202    C81.298,102.578,81.196,102.609,81.093,102.609z M40.826,69.808l40.279,31.676l5.545-3.998c0.047-0.031,2.472-1.609,3.325-4.167    c0.963-2.887,0.11-6.824-0.876-11.384c-0.554-2.563-1.183-5.467-1.548-8.506c-1.036-8.62,0.551-10.144,4.386-13.826    c2.31-2.219,6.751-5.331,11.452-8.625c0.712-0.499,1.433-1.003,2.156-1.512c-8.863,3.918-16.32,6.17-24.754,8.716    c-7.662,2.314-16.348,4.937-27.514,9.306L40.826,69.808z"/>
	</g>
	<g>
		<path fill="#1D2445" d="M126.983,13.177c0,0,0.918,2.723,0.536,5.158c-0.174,1.107,0.974,1.487,1.482,1.102    C129.686,18.916,129.567,15.03,126.983,13.177z"/>
	</g>
	<g>
		
			<ellipse transform="matrix(0.5834 -0.8122 0.8122 0.5834 39.4995 98.9114)" fill="#1D2445" cx="116.171" cy="10.951" rx="1.5" ry="2.016"/>
	</g>
	<g>
		
			<ellipse transform="matrix(0.5834 -0.8122 0.8122 0.5834 37.4169 103.5607)" fill="#1D2445" cx="119.662" cy="15.306" rx="1.5" ry="2.016"/>
	</g>
	<g>
		<polygon fill="#1D2445" points="4.456,3.259 26.527,39.132 31.733,35.484 7.792,2.027   "/>
	</g>
	<g>
		<path fill="#FFFFFF" d="M55.266,33.282c0,0,11.111,0.202,18.129,2.681c5.253,1.854,6.68,9.464-0.275,13.797    c-6.915,4.31-20.026,6.379-20.026,6.379L55.266,33.282z"/>
		<path fill="#1D2445" d="M53.095,56.639c-0.126,0-0.249-0.048-0.343-0.136c-0.112-0.106-0.17-0.258-0.155-0.412l2.171-22.857    c0.024-0.26,0.217-0.448,0.507-0.453c0.457,0.008,11.272,0.232,18.286,2.709c2.621,0.925,4.437,3.226,4.74,6.004    c0.361,3.298-1.478,6.546-4.916,8.688c-6.922,4.314-19.673,6.364-20.212,6.449C53.147,56.637,53.121,56.639,53.095,56.639z     M55.719,33.795l-2.064,21.741c2.701-0.478,13.314-2.532,19.201-6.201c3.105-1.934,4.77-4.824,4.452-7.731    c-0.262-2.393-1.825-4.374-4.079-5.17C67.169,34.295,57.887,33.868,55.719,33.795z"/>
	</g>
	<g>
		<path fill="#FFFFFF" d="M42.757,16.983c0,0,11.111,0.202,18.129,2.681c5.253,1.854,6.68,9.464-0.275,13.797    c-6.915,4.31-20.026,6.379-20.026,6.379L42.757,16.983z"/>
		<path fill="#1D2445" d="M40.585,40.34c-0.126,0-0.249-0.048-0.343-0.136c-0.112-0.106-0.17-0.258-0.155-0.412l2.172-22.857    c0.024-0.26,0.21-0.445,0.507-0.453c0.457,0.008,11.272,0.232,18.286,2.709c2.62,0.925,4.437,3.225,4.74,6.003    c0.36,3.298-1.478,6.547-4.916,8.689c-6.923,4.313-19.674,6.364-20.213,6.449C40.637,40.338,40.612,40.34,40.585,40.34z     M43.21,17.496l-2.065,21.741c2.701-0.478,13.315-2.532,19.202-6.201c3.105-1.935,4.77-4.825,4.451-7.732    c-0.262-2.393-1.824-4.374-4.078-5.169C54.66,17.995,45.378,17.568,43.21,17.496z"/>
	</g>
	<g>
		<path fill="#1D2445" d="M61.404,49.18c3.393-4.723,2.169-11.37-2.061-14.409c-1.17-0.841-2.948-1.656-4.477-1.831    c-3.402-2.788-2.551-3.168-4.468-4.614c0.514-3.325-0.211-7.521-3.382-9.798c-4.366-3.137-9.91-2.33-13.767,3.039    c-2.711,3.774-3.068,8.878-3.068,8.878l-7.876,10.964l-5.684,3.305l16.796,24.995l10.05-0.168l9.627-13.401    C53.094,56.139,56.955,55.372,61.404,49.18z"/>
	</g>
	<g>
		<path fill="#FFFFFF" d="M52.931,35.159c-0.411-2.042-2.519-3.291-4.274-3.737c-2.475-0.629-3.986-0.415-3.986-0.415l-2.606,13.62    c0,0,4.722-0.599,8.511-3.773C52.522,39.224,53.267,36.828,52.931,35.159z"/>
		<path fill="#1D2445" d="M42.066,45.128c-0.137,0-0.27-0.056-0.364-0.158c-0.109-0.117-0.157-0.279-0.127-0.436l2.605-13.62    c0.04-0.209,0.21-0.37,0.421-0.401c0.001,0,1.597-0.232,4.18,0.425c1.854,0.471,4.181,1.833,4.642,4.123    c0.336,1.675-0.311,4.322-2.525,6.177c-3.856,3.231-8.569,3.861-8.769,3.886C42.108,45.126,42.086,45.128,42.066,45.128z     M45.09,31.477l-2.396,12.53c1.422-0.296,4.774-1.201,7.561-3.536c1.902-1.594,2.468-3.82,2.188-5.214    c-0.369-1.834-2.336-2.951-3.907-3.351C46.883,31.487,45.664,31.456,45.09,31.477z"/>
	</g>
	<g>
		<path fill="#FFFFFF" d="M38.073,37.414c-0.411-2.042-2.519-3.291-4.274-3.737c-2.475-0.629-3.986-0.415-3.986-0.415l-2.606,13.62    c0,0,4.722-0.599,8.511-3.773C37.663,41.478,38.408,39.082,38.073,37.414z"/>
		<path fill="#1D2445" d="M27.207,47.382c-0.137,0-0.27-0.056-0.364-0.158c-0.109-0.117-0.157-0.279-0.127-0.436l2.605-13.62    c0.04-0.209,0.211-0.37,0.421-0.401c0.001,0,1.596-0.232,4.18,0.425c1.854,0.471,4.181,1.833,4.641,4.123    c0.337,1.674-0.31,4.321-2.524,6.177c-3.857,3.231-8.569,3.86-8.769,3.886C27.249,47.381,27.228,47.382,27.207,47.382z     M30.232,33.732l-2.396,12.53c1.422-0.296,4.773-1.201,7.561-3.536c1.902-1.594,2.467-3.82,2.187-5.214    c-0.368-1.834-2.335-2.952-3.906-3.351C32.027,33.742,30.812,33.71,30.232,33.732z"/>
	</g>
	<g>
		
			<ellipse transform="matrix(0.5834 -0.8122 0.8122 0.5834 -20.8236 39.6146)" fill="#FFFFFF" cx="28.205" cy="40.107" rx="7.5" ry="5.376"/>
		<path fill="#1D2445" d="M26.309,47.459c-1.034,0-1.992-0.296-2.771-0.856c-1.301-0.934-2.016-2.5-2.014-4.408    c0.002-1.846,0.68-3.806,1.909-5.517c1.739-2.421,4.295-3.925,6.669-3.925c1.034,0,1.992,0.296,2.771,0.855    c2.631,1.891,2.678,6.344,0.104,9.926C31.238,45.956,28.683,47.459,26.309,47.459z M30.102,33.754    c-2.058,0-4.302,1.344-5.856,3.508c-1.108,1.543-1.72,3.295-1.722,4.935c-0.002,1.577,0.565,2.854,1.598,3.595    c0.616,0.443,1.353,0.668,2.188,0.668c2.058,0,4.302-1.344,5.856-3.508c2.252-3.135,2.308-6.961,0.124-8.53    C31.673,33.978,30.937,33.754,30.102,33.754z"/>
	</g>
	<g>
		
			<ellipse transform="matrix(0.5834 -0.8122 0.8122 0.5834 -12.8028 50.7427)" fill="#FFFFFF" cx="43.064" cy="37.852" rx="7.5" ry="5.376"/>
		<path fill="#1D2445" d="M41.166,45.205c-1.033,0-1.991-0.296-2.771-0.855c-2.631-1.891-2.678-6.343-0.104-9.926    c1.739-2.421,4.295-3.925,6.67-3.925c1.033,0,1.991,0.296,2.771,0.855c1.301,0.934,2.016,2.5,2.014,4.408    c-0.002,1.847-0.68,3.806-1.909,5.517C46.097,43.701,43.541,45.205,41.166,45.205z M44.961,31.499    c-2.059,0-4.303,1.344-5.857,3.508c-2.252,3.135-2.308,6.961-0.124,8.53c0.616,0.443,1.353,0.667,2.187,0.667    c2.059,0,4.303-1.344,5.857-3.508c1.108-1.543,1.72-3.295,1.722-4.935c0.002-1.577-0.565-2.854-1.598-3.595    C46.531,31.724,45.795,31.499,44.961,31.499z"/>
	</g>
	<g>
		<path fill="#FFFFFF" d="M48.762,52.48c-0.411-2.042-2.519-3.291-4.274-3.737c-2.475-0.629-3.986-0.415-3.986-0.415l-2.606,13.62    c0,0,4.722-0.599,8.511-3.773C48.353,56.545,49.098,54.149,48.762,52.48z"/>
		<path fill="#1D2445" d="M37.897,62.449c-0.137,0-0.27-0.056-0.364-0.158c-0.109-0.117-0.157-0.279-0.127-0.436l2.605-13.62    c0.04-0.209,0.21-0.37,0.421-0.401c0.001,0,1.597-0.232,4.18,0.425c1.854,0.471,4.181,1.833,4.642,4.123    c0.336,1.675-0.311,4.322-2.525,6.177c-3.856,3.231-8.569,3.86-8.769,3.886C37.939,62.448,37.917,62.449,37.897,62.449z     M40.921,48.799l-2.396,12.53c1.422-0.296,4.774-1.201,7.561-3.536c1.902-1.594,2.468-3.82,2.188-5.214    c-0.369-1.834-2.336-2.951-3.907-3.351C42.714,48.808,41.495,48.778,40.921,48.799z"/>
	</g>
	<g>
		
			<ellipse transform="matrix(0.5834 -0.8122 0.8122 0.5834 -28.6073 54.5725)" fill="#FFFFFF" cx="38.895" cy="55.173" rx="7.5" ry="5.376"/>
		<path fill="#1D2445" d="M36.998,62.526c-1.034,0-1.992-0.296-2.771-0.855c-2.631-1.891-2.678-6.344-0.104-9.926    c1.739-2.421,4.295-3.925,6.669-3.925c1.034,0,1.992,0.296,2.771,0.856c1.301,0.934,2.016,2.5,2.014,4.408    c-0.002,1.846-0.68,3.806-1.909,5.517C41.928,61.022,39.372,62.526,36.998,62.526z M40.791,48.82    c-2.058,0-4.302,1.344-5.856,3.508c-2.252,3.135-2.308,6.961-0.124,8.53c0.616,0.443,1.353,0.667,2.188,0.667    c2.058,0,4.302-1.344,5.856-3.508c1.108-1.543,1.72-3.295,1.722-4.935c0.002-1.577-0.565-2.854-1.598-3.595    C42.363,49.045,41.626,48.82,40.791,48.82z"/>
	</g>
	<g>
		<polygon fill="#1D2445" points="45.826,68.695 53.098,67.022 86.943,97.892 83.689,100.238   "/>
	</g>
	<g>
		<path fill="#FFFFFF" d="M86.014,27.747l3.297-25.703c0.117-0.909-0.584-1.64-1.469-1.533l-4.764,0.576    c-0.473,0.057-0.906,0.349-1.158,0.778L67.609,26.229c-0.75,1.277-0.533,2.849,0.513,3.715l2.56,2.12    c0.606,0.502,1.414,0.696,2.22,0.535l10.591-2.112C84.802,30.228,85.841,29.098,86.014,27.747z"/>
		<path fill="#1D2445" d="M72.347,33.155c-0.729,0-1.434-0.25-1.983-0.705l-2.561-2.12c-1.24-1.027-1.504-2.858-0.625-4.354    L81.489,1.612c0.331-0.564,0.902-0.946,1.528-1.022l4.766-0.576c0.608-0.075,1.194,0.15,1.583,0.592    c0.352,0.4,0.513,0.948,0.441,1.501L86.51,27.81c-0.2,1.565-1.401,2.867-2.92,3.167L73,33.089    C72.782,33.133,72.564,33.155,72.347,33.155z M88.015,1c-0.037,0-0.074,0.002-0.111,0.007l-4.766,0.576    c-0.317,0.039-0.612,0.239-0.787,0.536L68.039,26.482c-0.628,1.07-0.459,2.364,0.402,3.077l2.56,2.12    c0.482,0.4,1.15,0.56,1.803,0.43l10.592-2.112c1.104-0.218,1.976-1.169,2.122-2.313L88.816,1.98    c0.035-0.273-0.036-0.526-0.2-0.713C88.464,1.095,88.25,1,88.015,1z"/>
	</g>
</g>

            </g>
        </g>
    </g>
    
    <!-- ITEM 5 -->
    <g>
        <defs>
            <clipPath id="clip-path-id-viewbox-item-5">
                <rect x="0.0" y="0.0" width="328.217" height="287.57"/>
            </clipPath>
        </defs>
        <g transform="translate(702.0 162.0) rotate(0.0 307.0 270.0) scale(1.8707135827821229 1.8778036651945613)">
            <g clip-path="url(#clip-path-id-viewbox-item-5)" transform="translate(-0.0 -0.0)">
                
<g>
	<g>
		<path fill="#1D2445" d="M240.016,150.979l18.218-12.869l35.249-24.25c5.768-3.968,6.738-12.101,2.065-17.314l-14.443-16.112    l-78.476,38.998L240.016,150.979z"/>
		<path fill="#1D2445" d="M239.988,151.611l-38.266-32.288l79.499-39.506l14.697,16.396c2.323,2.592,3.42,6.061,3.007,9.517    c-0.412,3.456-2.293,6.57-5.16,8.542l-35.249,24.25L239.988,151.611z M203.531,119.54l36.512,30.808l17.902-12.646l35.254-24.253    c2.631-1.81,4.355-4.667,4.734-7.837c0.378-3.171-0.628-6.353-2.759-8.731l-14.189-15.829L203.531,119.54z"/>
	</g>
	<g>
		<path fill="#1D2445" d="M273.009,44.822h28.044v54.989c0,4.111-3.264,7.479-7.373,7.607l-24.627,0.77v-59.41    C269.053,46.593,270.824,44.822,273.009,44.822z"/>
		<path fill="#1D2445" d="M269.053,108.688c-0.13,0-0.255-0.05-0.348-0.141c-0.098-0.094-0.152-0.224-0.152-0.359v-59.41    c0-2.457,1.999-4.456,4.456-4.456h28.044c0.276,0,0.5,0.224,0.5,0.5v54.989c0,4.408-3.451,7.969-7.857,8.107l-24.627,0.77    C269.064,108.688,269.058,108.688,269.053,108.688z M273.009,45.322c-1.905,0-3.456,1.55-3.456,3.456v58.894l24.111-0.753    c3.863-0.121,6.889-3.243,6.889-7.107V45.322H273.009z"/>
	</g>
	<g>
		<path fill="#1D2445" d="M206.928,133.112l12.927-13.848c0.095-0.102,0.182-0.211,0.26-0.327l16.59-24.694    c6.17-9.184,2.737-21.705-7.254-26.458l-10.733-5.106c-1.046-0.498-2.294-0.249-3.07,0.611l-51.224,56.779    c-1.327,1.471-0.604,3.825,1.319,4.298l38.645,9.501C205.309,134.094,206.28,133.805,206.928,133.112z"/>
		<path fill="#1D2445" d="M205.013,134.443L205.013,134.443c-0.25,0-0.501-0.03-0.744-0.09l-38.645-9.501    c-1.076-0.265-1.912-1.055-2.237-2.114s-0.076-2.182,0.666-3.005l51.224-56.779c0.903-1.001,2.438-1.307,3.656-0.727l10.732,5.106    c4.894,2.328,8.521,6.661,9.955,11.887c1.433,5.226,0.521,10.803-2.501,15.302l-16.59,24.694    c-0.094,0.138-0.196,0.268-0.309,0.388l-12.928,13.848C206.705,134.082,205.874,134.443,205.013,134.443z M217.593,62.925    c-0.6,0-1.173,0.255-1.574,0.7l-51.224,56.779c-0.504,0.559-0.674,1.322-0.452,2.042c0.221,0.719,0.789,1.256,1.52,1.436    l38.645,9.501c0.166,0.041,0.336,0.061,0.506,0.061l0,0c0.585,0,1.15-0.245,1.55-0.673l12.927-13.848    c0.076-0.082,0.147-0.171,0.211-0.266l16.589-24.692c2.859-4.257,3.722-9.534,2.366-14.48c-1.355-4.945-4.789-9.045-9.42-11.248    l-10.732-5.106C218.216,62.994,217.91,62.925,217.593,62.925z"/>
	</g>
	<g>
		<path fill="#1D2445" d="M216.511,17.822h28.542v46.994c0,8.84-7.166,16.006-16.006,16.006h-15.994V21.28    C213.053,19.37,214.602,17.822,216.511,17.822z"/>
		<path fill="#1D2445" d="M229.047,81.322h-15.994c-0.276,0-0.5-0.224-0.5-0.5V21.28c0-2.182,1.776-3.958,3.959-3.958h28.541    c0.276,0,0.5,0.224,0.5,0.5v46.994C245.553,73.917,238.149,81.322,229.047,81.322z M213.553,80.322h15.494    c8.55,0,15.506-6.956,15.506-15.506V18.322h-28.041c-1.632,0-2.959,1.327-2.959,2.958V80.322z"/>
	</g>
	<g>
		<path fill="#1D2445" d="M255.072,33.014l15.11-10.296c4.133-2.817,6.367-7.69,5.803-12.66l-0.192-1.691    c-0.207-1.825-1.855-3.137-3.681-2.93l-34.11,3.875l-1.389,42.839l11.583-1.684l2.512-11.048    C251.301,36.81,252.86,34.521,255.072,33.014z"/>
		<path fill="#1D2445" d="M236.613,52.651c-0.122,0-0.241-0.045-0.333-0.127c-0.11-0.099-0.172-0.241-0.167-0.389l1.389-42.839    c0.009-0.248,0.197-0.453,0.443-0.481l34.109-3.875c2.121-0.24,3.998,1.291,4.234,3.37l0.192,1.691    c0.587,5.17-1.719,10.201-6.019,13.13l-15.109,10.296c-2.114,1.441-3.592,3.608-4.158,6.103l-2.512,11.048    c-0.046,0.202-0.211,0.354-0.415,0.384l-11.583,1.684C236.661,52.649,236.637,52.651,236.613,52.651z M238.487,9.76l-1.354,41.81    l10.652-1.548l2.436-10.713c0.622-2.742,2.245-5.124,4.57-6.707l15.109-10.296c3.991-2.72,6.132-7.391,5.587-12.191l-0.192-1.691    c-0.175-1.537-1.568-2.667-3.127-2.49L238.487,9.76z"/>
	</g>
	<g>
		<path fill="#1D2445" d="M308.542,58.57l14.193-11.528c3.883-3.153,5.7-8.197,4.72-13.102l-0.985-4.931l-36.927,7.374l2.21,42.804    l11.401-2.649l1.576-11.219C305.103,62.668,306.465,60.257,308.542,58.57z"/>
		<path fill="#1D2445" d="M291.754,79.687c-0.107,0-0.213-0.035-0.301-0.101c-0.118-0.089-0.19-0.226-0.198-0.374l-2.21-42.804    c-0.013-0.248,0.158-0.468,0.401-0.516l36.927-7.374c0.132-0.026,0.265,0.001,0.375,0.074s0.188,0.188,0.213,0.318l0.984,4.931    c1.019,5.101-0.856,10.308-4.895,13.588l-14.193,11.527c-1.986,1.614-3.276,3.897-3.632,6.43l-1.576,11.219    c-0.028,0.205-0.181,0.371-0.382,0.417l-11.4,2.649C291.83,79.683,291.792,79.687,291.754,79.687z M290.066,36.788l2.157,41.776    l10.484-2.437l1.528-10.88c0.391-2.784,1.809-5.294,3.991-7.067l14.193-11.527c3.749-3.046,5.49-7.88,4.545-12.616l-0.887-4.441    L290.066,36.788z"/>
	</g>
	<g>
		<path fill="#FFFFFF" d="M273.52,53.106L273.52,53.106c-6.304-3.294-6.07-8.773,0.324-12.2l12.263-6.572l12.443-10.98    c3.814-3.366,12.776-4.009,18.35-1.353l4.549,2.168c7.235,3.447,7.928,9.312,1.314,13.15L296.56,52.525    C290.3,56.157,279.895,56.437,273.52,53.106z"/>
		<path fill="#1D2445" d="M284.31,55.937c-4.16,0-8.074-0.848-11.021-2.388c-3.128-1.634-4.857-3.879-4.87-6.321    c-0.014-2.56,1.83-4.962,5.19-6.763l12.212-6.545l12.399-10.942c2.215-1.954,6.156-3.121,10.543-3.121    c3.096,0,6.063,0.601,8.353,1.692l4.549,2.168c3.858,1.838,6.045,4.388,6.158,7.178c0.104,2.562-1.604,4.997-4.808,6.856    l-26.204,15.206C293.548,54.851,288.991,55.937,284.31,55.937z M308.763,20.858c-4.088,0-7.874,1.1-9.881,2.871l-12.443,10.98    c-0.029,0.026-0.061,0.048-0.095,0.066l-12.263,6.572c-2.975,1.594-4.675,3.736-4.663,5.876c0.011,2.053,1.55,3.985,4.333,5.44    c2.807,1.466,6.557,2.274,10.559,2.274c4.511,0,8.884-1.037,11.999-2.844l26.204-15.206c2.868-1.664,4.398-3.777,4.311-5.951    c-0.096-2.367-2.133-4.669-5.589-6.316l-4.549-2.168C314.527,21.424,311.713,20.858,308.763,20.858z"/>
	</g>
	<g>
		<path fill="#FFFFFF" d="M263.243,89.433l14.2,8.433c4.551,2.703,7.34,7.604,7.34,12.897v8.957l8.279-5.482    c5.004-3.313,8.028-8.903,8.063-14.905l0.059-10.229l-9.436,0.147c-2.711,0.042-5.383-0.651-7.731-2.006l-15.197-8.77v4.818    c0,1.772-0.938,3.411-2.465,4.31L263.243,89.433z"/>
		<path fill="#1D2445" d="M284.782,120.22c-0.081,0-0.162-0.02-0.236-0.06c-0.162-0.087-0.264-0.256-0.264-0.44v-8.957    c0-5.091-2.719-9.868-7.095-12.467l-14.2-8.433c-0.152-0.09-0.245-0.254-0.245-0.431c0-0.177,0.094-0.34,0.246-0.43l3.111-1.83    c1.369-0.805,2.219-2.291,2.219-3.879v-4.818c0-0.179,0.096-0.344,0.25-0.433s0.346-0.089,0.5,0l15.197,8.77    c2.201,1.27,4.707,1.941,7.248,1.941l0.226-0.002l9.437-0.147c0.115-0.001,0.264,0.05,0.359,0.145    c0.096,0.095,0.149,0.224,0.148,0.358l-0.06,10.229c-0.035,6.18-3.133,11.907-8.286,15.319l-8.279,5.482    C284.975,120.192,284.879,120.22,284.782,120.22z M264.225,89.435l13.473,8.001c4.679,2.779,7.585,7.885,7.585,13.327v8.026    l7.503-4.968c4.875-3.227,7.806-8.644,7.839-14.49l0.057-9.718l-9.167,0.141c-2.716,0-5.396-0.718-7.748-2.075l-14.447-8.337    v3.952c0,1.941-1.039,3.757-2.711,4.741L264.225,89.435z"/>
	</g>
	<g>
		<path fill="#FFFFFF" d="M209.429,70.653l15.132,4.019c5.554,1.475,9.777,5.995,10.874,11.636l1.516,7.801l5.95-11.901    c1.182-2.365,1.829-4.961,1.895-7.604l0.365-14.731l-8.205,2.677c-2.692,0.878-5.577,0.977-8.322,0.284l-15.388-3.882l-0.227-0.06    l-0.089,5.27c-0.02,1.171-0.45,2.299-1.216,3.185l-2.71,3.136L209.429,70.653z"/>
		<path fill="#1D2445" d="M236.95,94.609c-0.022,0-0.045-0.001-0.067-0.005c-0.213-0.029-0.383-0.19-0.424-0.4l-1.516-7.801    c-1.053-5.416-5.179-9.832-10.511-11.248l-15.131-4.019l-0.482-0.188c-0.15-0.06-0.263-0.189-0.301-0.346    c-0.039-0.157,0.001-0.323,0.107-0.446l2.71-3.136c0.688-0.797,1.076-1.815,1.094-2.867l0.089-5.27    c0.003-0.154,0.076-0.298,0.198-0.39c0.122-0.093,0.282-0.124,0.43-0.084l0.227,0.06l15.382,3.88    c2.645,0.667,5.456,0.57,8.045-0.275l8.206-2.677c0.154-0.051,0.323-0.022,0.454,0.074c0.13,0.097,0.205,0.251,0.201,0.413    l-0.365,14.732c-0.067,2.698-0.74,5.4-1.948,7.815l-5.95,11.901C237.312,94.503,237.138,94.609,236.95,94.609z M209.863,70.254    l14.825,3.935c5.701,1.514,10.111,6.234,11.237,12.024l1.234,6.358l5.293-10.586c1.143-2.284,1.779-4.841,1.843-7.392    l0.348-14.024l-7.533,2.458c-2.769,0.903-5.775,1.007-8.6,0.294l-15.003-3.785l-0.078,4.636c-0.021,1.286-0.496,2.53-1.338,3.504    L209.863,70.254z"/>
	</g>
	<g>
		<path fill="#FFFFFF" d="M216.16,25.576L216.16,25.576c5.622,2.938,15.451,2.798,21.769-0.277l12.125-5.903l20.417-6.131    c6.324-1.899,7.348-6.09,2.231-8.528l-4.105-1.956c-6.401-3.05-16.952-3.045-23.782,0.047l-26.959,12.204    C211.437,17.935,210.597,22.67,216.16,25.576z"/>
		<path fill="#1D2445" d="M226.374,28.195C226.373,28.195,226.373,28.195,226.374,28.195c-4.051,0-7.761-0.773-10.446-2.176    c-2.611-1.365-4.019-3.222-3.962-5.229c0.066-2.345,2.138-4.61,5.682-6.215l26.959-12.204C247.985,0.842,252.358,0,256.919,0    c4.517,0,8.739,0.827,11.891,2.328l4.105,1.956c2.415,1.15,3.671,2.742,3.538,4.482c-0.161,2.097-2.289,3.91-5.84,4.977    l-20.417,6.131l-12.05,5.874C234.906,27.326,230.725,28.195,226.374,28.195z M256.919,1c-4.423,0-8.648,0.811-11.9,2.282    L218.06,15.486c-3.182,1.441-5.039,3.384-5.094,5.332c-0.045,1.605,1.171,3.137,3.425,4.315c2.546,1.33,6.091,2.062,9.982,2.062    c4.142,0,8.273-0.855,11.336-2.346l12.125-5.903l20.492-6.161c3.086-0.927,5.004-2.458,5.13-4.095    c0.099-1.299-0.956-2.543-2.971-3.503l-4.105-1.956C265.361,1.792,261.29,1,256.919,1z"/>
	</g>
	<g>
		<path fill="#FFFFFF" d="M54.395,135.497c-0.225-0.206-0.53-0.299-0.828-0.252l-37.013,5.675c-0.685,0.033-1.369,0.139-2.036,0.314    c-0.111,0.011-0.22,0.041-0.321,0.088c-0.707,0.21-1.373,0.488-1.982,0.826l-0.509,0.282c-0.015,0.007-0.029,0.014-0.044,0.022    l-10.034,5.389c-0.475,0.258-1.914,1.318-0.564,4.007c0.191,0.522,0.697,0.869,1.351,0.941c-1.345,1.002-1.099,3.579-0.349,4.9    c0.204,0.468,0.665,0.787,1.242,0.88c-0.403,1.256,0.155,2.988,0.907,4.019c0.109,0.171,0.254,0.313,0.426,0.423l-0.724,0.542    c-1.155,0.964-1.167,2.705-0.028,4.234l0.002-0.002c0.286,0.401,0.979,1.02,1.995,1.02c0.464,0,0.931-0.132,1.382-0.389    l1.766-0.99c0.029,0.221,0.077,0.443,0.16,0.661l0.293,0.771c0.575,1.512,2.267,2.271,3.779,1.696l6.864-2.612    c0.259-0.099,0.473-0.26,0.644-0.455c0.047-0.005,0.099,0,0.131-0.029c0.16-0.145,3.661-4.06,4.843-6.098l1.805-3.36    c0.4-0.75,0.784-1.468,1.054-2.252l23.677,0.578c0.575,0.011,0.98-0.393,1.021-0.923l1.044-13.639l0.369-5.461    C54.737,135.998,54.619,135.702,54.395,135.497z"/>
		<path fill="#1D2445" d="M12.224,171.244c-1.414,0-2.702-0.888-3.206-2.21l-0.293-0.771c-0.01-0.026-0.019-0.051-0.027-0.077    l-1.187,0.665c-0.526,0.3-1.074,0.453-1.626,0.453c-1.095,0-1.934-0.603-2.368-1.184c-0.011-0.011-0.021-0.023-0.03-0.036    c-1.305-1.752-1.26-3.774,0.109-4.917l0.271-0.204c-0.026-0.035-0.051-0.071-0.075-0.108c-0.721-0.988-1.277-2.59-1.078-3.932    c-0.509-0.199-0.9-0.56-1.107-1.035c-0.712-1.249-0.989-3.481-0.097-4.852c-0.431-0.223-0.755-0.574-0.917-1.017    c-1.571-3.124,0.387-4.395,0.795-4.618l10.584-5.692c0.64-0.355,1.34-0.647,2.082-0.868c0.089-0.046,0.251-0.09,0.416-0.106    c0.621-0.169,1.34-0.281,2.06-0.316l36.961-5.669c0.444-0.069,0.907,0.071,1.242,0.377c0.338,0.31,0.514,0.75,0.482,1.206    l-0.369,5.461l-1.044,13.644c-0.063,0.803-0.691,1.385-1.497,1.385l-23.354-0.57c-0.267,0.684-0.604,1.315-0.958,1.977    l-1.806,3.363c-1.201,2.071-4.734,6.038-4.947,6.232c-0.074,0.067-0.152,0.104-0.223,0.126c-0.209,0.202-0.447,0.355-0.711,0.456    l-6.863,2.612C13.05,171.169,12.641,171.244,12.224,171.244z M9.032,166.925c0.076,0,0.153,0.018,0.224,0.053    c0.148,0.074,0.25,0.217,0.272,0.381c0.027,0.209,0.07,0.388,0.131,0.548l0.294,0.771c0.461,1.212,1.911,1.872,3.134,1.406    l6.863-2.612c0.166-0.063,0.316-0.17,0.445-0.318c0.067-0.076,0.155-0.13,0.253-0.155c0.583-0.628,3.613-4.081,4.665-5.894    l1.797-3.346c0.394-0.737,0.765-1.432,1.021-2.178c0.069-0.202,0.26-0.337,0.473-0.337c0.004,0,0.008,0,0.013,0l23.677,0.578l0,0    c0.293,0,0.488-0.181,0.511-0.462l1.412-19.096c0.011-0.152-0.048-0.299-0.16-0.402c-0.093-0.085-0.213-0.132-0.338-0.132    l-37.089,5.68c-0.702,0.037-1.353,0.137-1.985,0.303c-0.133,0.019-0.187,0.034-0.239,0.058c-0.738,0.225-1.372,0.489-1.948,0.809    l-0.51,0.282l-10.084,5.415c-0.478,0.26-1.475,1.11-0.354,3.342c0.145,0.387,0.495,0.617,0.958,0.668    c0.204,0.023,0.374,0.168,0.428,0.366s-0.019,0.409-0.184,0.532c-1.071,0.798-0.87,3.094-0.213,4.252    c0.157,0.353,0.472,0.567,0.887,0.633c0.144,0.023,0.271,0.108,0.347,0.232s0.095,0.276,0.05,0.415    c-0.351,1.094,0.169,2.657,0.836,3.571c0.086,0.134,0.178,0.224,0.29,0.296c0.139,0.088,0.225,0.239,0.231,0.403    c0.006,0.164-0.069,0.321-0.2,0.419l-0.724,0.542c-0.912,0.762-0.899,2.201,0.045,3.497c0.013,0.014,0.024,0.029,0.036,0.045    c0.059,0.083,0.607,0.811,1.588,0.811c0.376,0,0.758-0.109,1.135-0.323l1.769-0.992C8.863,166.947,8.948,166.925,9.032,166.925z"/>
	</g>
	<g>
		<polygon fill="#676FFE" points="27.617,157.492 28.053,157.509 28.053,144.51   "/>
		<path fill="#1D2445" d="M28.053,158.009c-0.007,0-0.014,0-0.02,0l-0.437-0.017c-0.275-0.011-0.489-0.241-0.48-0.516l0.437-12.982    c0.01-0.273,0.187-0.496,0.509-0.483c0.272,0.005,0.491,0.227,0.491,0.5v12.999c0,0.136-0.056,0.266-0.153,0.361    C28.306,157.959,28.182,158.009,28.053,158.009z"/>
	</g>
	<g>
		<polygon fill="#1D2445" points="28.245,138.796 28.053,144.51 28.053,157.509 60.72,158.817 60.72,133.259   "/>
		<path fill="#1D2445" d="M60.72,159.317c-0.007,0-0.014,0-0.02,0l-32.667-1.308c-0.269-0.011-0.48-0.231-0.48-0.5V144.51    l0.192-5.731c0.008-0.237,0.182-0.436,0.416-0.476l32.475-5.537c0.145-0.024,0.294,0.016,0.406,0.111    c0.112,0.095,0.178,0.235,0.178,0.382v25.558c0,0.136-0.056,0.266-0.153,0.361C60.973,159.267,60.849,159.317,60.72,159.317z     M28.553,157.029l31.667,1.268v-24.445l-31.488,5.369l-0.179,5.306V157.029z"/>
	</g>
	<g>
		<g>
			<g>
				<path fill="#FFFFFF" d="M133.751,257.181l16.614-9.843l-7.374-11.927l-20.504,11.931l-0.178-0.239l-0.671,0.541l0.058,0.114      c-0.473,0.194-0.977,0.305-1.496,0.305c-0.109,0-0.219-0.004-0.308-0.012l-2.47-0.257c-1.805-0.183-3.606,0.066-5.285,0.723      l-2.397,0.932l-10.923,1.625c-0.5,0.025-0.96,0.243-1.296,0.614c-0.336,0.371-0.507,0.851-0.481,1.352      c0.005,0.089,0.015,0.177,0.035,0.273c0.228,1.059,1.098,1.935,2.479,2.478c1.04,0.372,2.19,0.451,3.242,0.241l3.589-0.673      c0.415-0.074,0.849,0.015,1.198,0.242l0.144,0.123c0.252,0.202,0.41,0.49,0.445,0.812s-0.057,0.637-0.26,0.889      c-0.04,0.05-0.083,0.096-0.13,0.138L94.66,269.403c-1.164,1.259-1.394,3.029-0.519,4.363c0.529,0.696,1.65,0.813,2.278,0.333      l9.404-6.839l-7.778,10.365l-0.058,0.086c-0.88,1.469-0.751,3.247,0.378,4.386c0.664,0.563,1.757,0.469,2.308-0.184l7.405-8.073      l-4.546,8.491l-0.043,0.091c-0.654,1.586-0.259,3.326,1.015,4.267c0.745,0.479,1.809,0.249,2.286-0.493l6.688-10.023      l-1.695,6.624c-0.456,1.65,0.152,3.329,1.555,4.121c0.219,0.101,0.451,0.152,0.691,0.152c0.642,0,1.229-0.376,1.459-0.881      l3.919-11.511c0.353-1.02,0.976-1.925,1.806-2.621l3.592-3.05l0.098-0.095c1.684-1.88,3.434-3.411,4.699-5.59l0.048-0.115      l0.044,0.085l3.434-1.677l-1.711-2.296C132.033,258.454,132.821,257.719,133.751,257.181z"/>
			</g>
		</g>
		<g>
			<g>
				<path fill="#1D2445" d="M114.028,287.57c-0.313,0-0.616-0.067-0.901-0.198c-1.633-0.921-2.353-2.806-1.826-4.708l0.966-3.775      l-5.061,7.584c-0.594,0.923-2.032,1.242-2.973,0.636c-1.464-1.08-1.948-3.078-1.206-4.878l0.053-0.114l2.686-5.016l-4.725,5.15      c-0.677,0.806-2.159,0.94-2.999,0.227c-1.316-1.325-1.497-3.332-0.483-5.024l0.07-0.107l5.798-7.727l-6.714,4.882      c-0.322,0.246-0.761,0.386-1.226,0.386c-0.701,0-1.354-0.307-1.744-0.821c-1.021-1.554-0.793-3.554,0.549-5.005l13.156-11.871      c0.029-0.026,0.053-0.052,0.075-0.08c0.119-0.148,0.173-0.333,0.152-0.521s-0.113-0.357-0.261-0.476l-0.156-0.133      c-0.173-0.106-0.494-0.182-0.785-0.13l-3.585,0.672c-1.121,0.224-2.401,0.133-3.502-0.262c-1.547-0.607-2.536-1.615-2.801-2.844      c-0.026-0.125-0.039-0.238-0.045-0.351c-0.032-0.636,0.185-1.244,0.609-1.715c0.426-0.47,1.009-0.746,1.642-0.778l10.819-1.612      l2.346-0.911c1.755-0.687,3.627-0.946,5.517-0.755l2.471,0.257c0.066,0.005,0.161,0.009,0.256,0.009      c0.332,0,0.666-0.052,0.997-0.156c0.031-0.057,0.073-0.109,0.126-0.152l0.671-0.542c0.106-0.085,0.239-0.124,0.378-0.107      c0.083,0.011,0.162,0.042,0.229,0.09l20.138-11.718c0.232-0.135,0.535-0.062,0.677,0.169l7.374,11.927      c0.071,0.114,0.093,0.252,0.061,0.382s-0.115,0.242-0.23,0.311l-16.614,9.843c-0.755,0.436-1.414,1.01-1.966,1.708l1.488,1.996      c0.09,0.119,0.12,0.272,0.086,0.417c-0.035,0.145-0.133,0.266-0.267,0.331l-3.412,1.666c-0.962,1.602-2.111,2.809-3.325,4.083      c-0.443,0.465-0.892,0.936-1.336,1.432l-0.121,0.12l-3.617,3.072c-0.762,0.639-1.334,1.47-1.656,2.404l-3.918,11.509      C115.622,287.098,114.854,287.57,114.028,287.57z M113.478,275.672c0.068,0,0.138,0.014,0.204,0.043      c0.222,0.099,0.341,0.344,0.28,0.581l-1.695,6.624c-0.404,1.462,0.126,2.889,1.316,3.562c0.116,0.052,0.278,0.088,0.445,0.088      c0.427,0,0.849-0.248,1.004-0.589l3.9-11.465c0.383-1.107,1.06-2.09,1.958-2.843l3.662-3.12      c0.427-0.478,0.883-0.956,1.332-1.429c1.227-1.288,2.385-2.504,3.283-4.053l0.019-0.056c0.075-0.18,0.247-0.3,0.441-0.307      c0.038-0.001,0.072,0.001,0.108,0.007l2.629-1.284l-1.351-1.813c-0.13-0.174-0.133-0.412-0.007-0.589      c0.677-0.948,1.516-1.716,2.492-2.28l16.171-9.58l-6.85-11.079l-20.083,11.686c-0.152,0.088-0.334,0.089-0.48,0.012      l-0.068,0.055c-0.005,0.03-0.014,0.06-0.023,0.088c-0.049,0.132-0.15,0.237-0.279,0.29c-0.553,0.227-1.12,0.342-1.687,0.342      c-0.124,0-0.248-0.005-0.349-0.013l-2.48-0.258c-1.723-0.175-3.442,0.062-5.051,0.691l-2.399,0.932      c-0.034,0.013-0.07,0.023-0.107,0.029l-10.923,1.625c-0.414,0.023-0.752,0.183-0.999,0.455c-0.245,0.272-0.371,0.624-0.353,0.99      c0.004,0.062,0.011,0.125,0.025,0.195c0.19,0.889,0.963,1.641,2.173,2.117c0.91,0.325,1.998,0.408,2.962,0.216l3.595-0.674      c0.559-0.101,1.106,0.018,1.563,0.314l0.196,0.162c0.344,0.276,0.567,0.683,0.617,1.137c0.05,0.455-0.081,0.901-0.367,1.257      c-0.058,0.071-0.119,0.138-0.187,0.198l-13.122,11.837c-0.992,1.076-1.18,2.582-0.436,3.717c0.295,0.385,1.151,0.52,1.557,0.21      l9.414-6.846c0.199-0.146,0.476-0.123,0.65,0.053c0.174,0.176,0.192,0.453,0.044,0.651l-7.82,10.429      c-0.763,1.273-0.64,2.791,0.317,3.757c0.359,0.299,1.213,0.27,1.57-0.154l7.419-8.089c0.17-0.186,0.453-0.215,0.657-0.07      c0.206,0.146,0.271,0.422,0.151,0.644l-4.577,8.56c-0.565,1.373-0.225,2.849,0.859,3.65c0.423,0.267,1.254,0.128,1.568-0.362      l6.692-10.03C113.157,275.752,113.315,275.672,113.478,275.672z"/>
			</g>
		</g>
	</g>
	<g>
		<g>
			<g>
				<path fill="#FFFFFF" d="M229.295,118.734L184.888,100.7c-1.331-0.54-2.83-0.482-4.115,0.159l-44.154,22.048l0.044,0.034      l-33.024,16.512l59.239,56.367l-14.489,30.227l-0.644,0.52l0.24,0.322l-1.994,4.161l7.929,3.801l9.078,12.177l5.921-2.891      c1.813-1.058,3.01-2.687,3.57-4.492c0.107-0.162,0.218-0.32,0.304-0.499l22.008-45.916l13.999-20.405l33.921-23.321      c1.357-0.933,2.167-2.474,2.167-4.12v-3.488C244.889,131.722,238.722,122.562,229.295,118.734z"/>
			</g>
		</g>
		<g>
			<g>
				<path fill="#1D2445" d="M162.997,247.528c-0.153,0-0.304-0.071-0.4-0.201l-9.004-12.078l-7.818-3.748      c-0.249-0.119-0.354-0.418-0.235-0.667l1.864-3.888l-0.061-0.08c-0.16-0.215-0.122-0.519,0.087-0.688l0.557-0.449l14.282-29.797      l-58.976-56.116c-0.118-0.112-0.174-0.275-0.149-0.436c0.023-0.161,0.125-0.3,0.271-0.373l32.829-16.414      c0.039-0.055,0.09-0.101,0.151-0.132l44.154-22.048c1.398-0.698,3.08-0.762,4.527-0.175l44.407,18.033      c9.662,3.924,15.905,13.198,15.905,23.626v3.488c0,1.812-0.892,3.506-2.385,4.532l-33.845,23.268l-13.946,20.328l-21.969,45.849      c-0.082,0.17-0.183,0.325-0.285,0.478c-0.618,1.97-1.967,3.666-3.789,4.729l-5.953,2.909      C163.147,247.512,163.071,247.528,162.997,247.528z M146.657,230.815l7.479,3.585c0.073,0.035,0.137,0.087,0.186,0.152      l8.829,11.845l5.548-2.709c1.573-0.919,2.762-2.414,3.313-4.19c0.014-0.045,0.034-0.087,0.06-0.126      c0.001-0.001,0.057-0.085,0.057-0.086c0.076-0.114,0.154-0.228,0.215-0.355l22.008-45.916l14.038-20.471      c0.034-0.051,0.078-0.094,0.129-0.129l33.921-23.321c1.222-0.84,1.951-2.226,1.951-3.708v-3.488      c0-10.02-5.998-18.93-15.282-22.7l-44.407-18.033c-1.181-0.48-2.559-0.428-3.703,0.143l-43.959,21.95      c-0.039,0.055-0.089,0.101-0.151,0.132l-32.388,16.193l58.724,55.876c0.157,0.149,0.2,0.383,0.106,0.578l-14.488,30.227      c-0.032,0.067-0.079,0.126-0.137,0.173l-0.275,0.222c0.072,0.138,0.076,0.304,0.008,0.448L146.657,230.815z"/>
			</g>
		</g>
	</g>
	<g>
		<polygon fill="#1D2445" points="122.309,247.103 133.127,261.615 162.998,247.028 147.744,226.567   "/>
		<path fill="#1D2445" d="M133.127,262.115c-0.153,0-0.304-0.071-0.4-0.201l-10.818-14.511c-0.161-0.215-0.123-0.519,0.086-0.688    l25.436-20.536c0.106-0.085,0.243-0.124,0.377-0.107c0.135,0.017,0.257,0.088,0.338,0.197l15.253,20.461    c0.09,0.119,0.12,0.272,0.086,0.417c-0.035,0.145-0.133,0.266-0.267,0.331l-29.87,14.587    C133.277,262.098,133.201,262.115,133.127,262.115z M122.997,247.19l10.283,13.793l28.955-14.14l-14.581-19.561L122.997,247.19z"/>
	</g>
	<g>
		<g>
			<g>
				<path fill="#FFFFFF" d="M126.346,132.594l-54.23-1.138c-0.288-0.006-0.561,0.046-0.822,0.127      c-0.232-0.042-0.474-0.046-0.718-0.005l-9.857,1.681v25.558l9.368,0.375l0.088-0.102l55.59,1.166L126.346,132.594z"/>
			</g>
		</g>
		<g>
			<g>
				<path fill="#1D2445" d="M125.766,160.756c-0.003,0-0.007,0-0.011,0l-55.37-1.162c-0.092,0.067-0.222,0.1-0.316,0.097      l-9.368-0.375c-0.269-0.011-0.48-0.231-0.48-0.5v-25.558c0-0.244,0.176-0.452,0.416-0.493l9.857-1.681      c0.258-0.044,0.518-0.046,0.769-0.014c0.282-0.078,0.549-0.116,0.811-0.116l54.285,1.138c0.133,0.003,0.259,0.058,0.351,0.154      s0.142,0.224,0.139,0.356l-0.581,27.663C126.26,160.539,126.037,160.756,125.766,160.756z M70.176,158.59      c0.004,0,0.007,0,0.011,0l55.09,1.156l0.56-26.663l-53.73-1.127c-0.211,0.011-0.435,0.034-0.663,0.104      c-0.076,0.023-0.156,0.028-0.236,0.014c-0.175-0.032-0.359-0.036-0.545-0.004l-9.441,1.61v24.656l8.665,0.347      C69.969,158.623,70.07,158.59,70.176,158.59z"/>
			</g>
		</g>
	</g>
	<g>
		<path fill="#FFFFFF" d="M168.833,164.452c0,13.63-7.6,25.49-18.79,31.56c-4.06,2.22-8.59,3.66-13.4,4.15    c-1.22,0.14-2.46,0.2-3.72,0.2c-18.66,0-34-14.24-35.74-32.44c-0.11-1.14-0.17-2.3-0.17-3.47c0-1.12,0.05-2.22,0.15-3.31    c1.67-18.28,17.05-32.6,35.76-32.6C152.753,128.542,168.833,144.622,168.833,164.452z"/>
		<path fill="#1D2445" d="M132.923,200.862c-18.866,0-34.445-14.141-36.237-32.892c-0.114-1.187-0.173-2.371-0.173-3.518    c0-1.12,0.052-2.249,0.152-3.355c1.722-18.844,17.309-33.055,36.258-33.055c20.076,0,36.41,16.333,36.41,36.41    c0,13.364-7.3,25.625-19.052,31.999c-4.21,2.302-8.782,3.719-13.587,4.208C135.507,200.796,134.272,200.862,132.923,200.862z     M132.923,129.042c-18.429,0-33.588,13.82-35.262,32.146c-0.099,1.077-0.148,2.175-0.148,3.265c0,1.115,0.057,2.266,0.169,3.422    c1.742,18.236,16.893,31.988,35.241,31.988c1.311,0,2.509-0.064,3.664-0.197c4.678-0.477,9.122-1.853,13.216-4.092    c11.431-6.2,18.53-18.125,18.53-31.121C168.333,144.927,152.448,129.042,132.923,129.042z"/>
	</g>
	<g>
		<path fill="#1D2445" d="M150.043,196.012c-4.06,2.22-8.59,3.66-13.4,4.15c-1.22,0.14-2.46,0.2-3.72,0.2    c-18.66,0-34-14.24-35.74-32.44c2.24-0.25,4.54-0.38,6.87-0.38C126.663,167.542,145.553,179.752,150.043,196.012z"/>
		<path fill="#1D2445" d="M132.923,200.862c-18.866,0-34.445-14.141-36.237-32.892c-0.025-0.272,0.171-0.514,0.442-0.544    c2.277-0.254,4.607-0.383,6.925-0.383c22.313,0,41.857,12.128,46.473,28.837c0.062,0.224-0.039,0.46-0.242,0.572    c-4.212,2.303-8.784,3.719-13.589,4.209C135.507,200.796,134.272,200.862,132.923,200.862z M97.732,168.366    c1.967,17.99,17.009,31.496,35.191,31.496c1.311,0,2.509-0.064,3.664-0.197c4.544-0.463,8.868-1.775,12.865-3.903    c-4.689-16.086-23.699-27.72-45.399-27.72C101.94,168.042,99.816,168.151,97.732,168.366z"/>
	</g>
</g>
<line fill="none" stroke="#1D2445" stroke-linecap="round" stroke-linejoin="round" stroke-miterlimit="10" x1="8.803" y1="167.548" x2="17.802" y2="162.904"/>

            </g>
        </g>
    </g>
    
</svg>